<?xml version="1.0" encoding="utf-8"?>
<!-- Generator: Adobe Illustrator 18.0.0, SVG Export Plug-In . SVG Version: 6.00 Build 0)  -->
<!DOCTYPE svg PUBLIC "-//W3C//DTD SVG 1.1//EN" "http://www.w3.org/Graphics/SVG/1.1/DTD/svg11.dtd">
<svg version="1.1" id="Layer_1" xmlns="http://www.w3.org/2000/svg" xmlns:xlink="http://www.w3.org/1999/xlink" x="0px" y="0px"
	 viewBox="-62 -44.162 2637 1878.325" enable-background="new -62 -44.162 2637 1878.325" xml:space="preserve">
<g>
	<path fill="#1F1A17" d="M1202.682-16.739h157.349c7.813,4.38,10.044,14.089,10.544,22.361c0.224,17.002,0.031,34.004,0.102,51.006
		c0.214,9.993-0.845,21.821-9.464,28.361c1.416,2.037,2.873,4.065,4.37,6.061c13.284-6.336,31.692-4.706,40.86,7.742
		c10.666,16.86,21.077,33.882,31.631,50.803c2.486,4.065,5.603,8.089,5.908,13.039c0.652,6.357-2.679,12.459-7.437,16.462
		c-3.555,3.301-8.313,4.655-12.642,6.55c4.859,7.661,9.525,15.444,14.394,23.104c7.08-2.883,14.68-5.063,22.401-3.891
		c8.649,1.11,17.511,5.603,21.617,13.61c-0.448-0.051-1.345-0.163-1.803-0.224c0.815,0.275,1.691,0.52,2.496,0.937
		c10.737,17.848,21.984,35.39,32.853,53.156c2.893,4.666,3.362,10.747,1.161,15.78c-2.547,5.868-7.742,10.34-13.641,12.632
		c-2.272,1.049-4.89,1.426-6.815,3.066c6.968,10.421,13.243,21.291,20.038,31.824c11.145-5.144,25.111-4.605,35.105,2.832
		c3.667,2.506,5.939,6.397,8.19,10.126c10.544,16.91,21.036,33.872,31.57,50.803c3.036,4.676,3.881,10.757,1.701,15.953
		c-2.801,7.1-9.484,11.817-16.523,14.15c3.83,6.754,8.048,13.304,12.255,19.834c10.951-5.267,24.53-6.071,35.145,0.479
		c5.858,3.209,8.924,9.362,12.337,14.802c9.993,16.146,20.109,32.211,30.052,48.399c4.34,6.947,2.608,16.523-3.25,22.055
		c-4.258,4.625-10.319,6.785-16.116,8.74c1.62,3.199,3.688,6.122,5.654,9.117c-0.632,0.56-1.1,1.263-0.896,2.129
		c0.53-0.031,1.589-0.092,2.119-0.112c3.626,6.102,7.355,12.153,11.236,18.102c10.421-4.941,23.125-6.031,33.536-0.438
		c4.533,2.292,8.221,6,10.696,10.421c10.992,17.715,21.994,35.42,33.026,53.105c3.606,5.674,3.677,13.304-0.061,18.938
		c-3.851,6.428-10.9,9.922-17.858,11.949c2.781,6.082,7.029,11.46,10.329,17.318c7.121-2.801,14.68-5.073,22.432-3.851
		c8.211,0.998,16.503,5.094,20.955,12.306c10.004,16.116,20.038,32.222,30.042,48.348c2.822,4.768,6.744,9.433,6.723,15.281
		c0.306,8.17-5.583,15.321-12.601,18.826c-2.934,1.722-6.561,2.068-9.219,4.238c6.234,9.229,11.929,18.846,17.746,28.34
		c5.267-1.07,10.136-4.024,15.688-3.688c10.37-0.907,21.79,2.964,27.658,11.97c11.297,18.092,22.493,36.245,33.821,54.327
		c2.506,3.902,3.861,8.639,2.964,13.274c-1.406,7.243-7.111,13.019-13.722,15.912c-2.282,1.08-4.89,1.518-6.907,3.107
		c3.779,5.389,6.999,11.145,10.584,16.666c8.262-3.453,17.43-5.481,26.293-3.148c6.693,1.63,13.05,5.379,16.849,11.247
		c10.279,16.656,20.68,33.24,30.958,49.896c0.489,0.652,1.467,1.946,1.956,2.598c1.63-4.584,1.385-9.617,2.496-14.353
		c2.975-17.603,6.774-35.359,14.557-51.546c12.184-24.449,36.5-43.723,64.28-45.679c3.178,0.876,6.458,1.263,9.779,0.662
		c-2.058-0.713-4.808,0.245-6.428-1.182c17.909-0.275,35.919,5.409,50.028,16.574c21.332,16.36,34.065,41.482,40.616,67.082
		c5.022,19.437,6.846,39.577,6.723,59.604c0.163,11.134-1.416,22.432,1.253,33.393c2.679,13.09,10.533,25.009,21.668,32.446
		c15.525,10.442,35.176,13.253,53.482,10.941c17.613-2.221,35.206-9.128,47.91-21.831c3.474-3.168,5.674-7.365,8.669-10.931
		c-10.085-6.285-19.967-13.651-26.639-23.644c-2.72-4.167-4.696-8.842-5.44-13.763c-4.88,0.01-12.214,0.234-13.742-5.684
		c-0.224-11.552-0.061-23.114-0.092-34.666c-0.071-3.942,4.126-6.347,7.65-6.52c8.139-0.214,16.289-0.01,24.439-0.071
		c-18.326-19.997-34.972-42.521-42.887-68.813c-6.683-21.352-6.611-44.395-1.701-66.114c6.346-28.615,19.182-55.173,31.121-81.771
		c12.418-27.311,24.449-55.041,31.376-84.328c4.431-18.53,6.723-37.59,6.469-56.64c-9.8-1.508-19.579-5.114-26.833-12.072
		c-6.316-5.837-9.993-14.832-7.966-23.4c2.934-11.949,14.079-19.793,25.294-23.267c10.004-3.433,20.7-2.353,31.081-2.526
		c48.246,0,96.481,0,144.727,0c6.102,0.031,12.275-0.255,18.316,0.937c8.537,1.64,16.87,5.236,23.318,11.165
		c5.032,4.737,8.771,11.287,8.802,18.347c0.214,7.131-3.423,13.844-8.435,18.703c-7.274,6.897-16.982,10.645-26.792,12.041
		c-0.856,28.208,4.431,56.334,13.304,83.045c9.555,29.125,23.196,56.64,35.512,84.644c8.903,20.374,17.267,41.217,21.26,63.18
		c1.009,3.657,0.428,7.742,2.251,11.155v28.646c-1.895,0.917-1.029,3.555-1.61,5.226c-5.144,31.356-23.42,58.687-44.507,81.7
		c7.314,0.234,14.679,0.245,22.004-0.092c0.906,0.632-1.427,1.151-1.813,1.365c-6.622-0.071-13.233-0.061-19.834-0.061
		c6.774,0.153,13.559-0.204,20.344,0.275c1.365,0.224,2.709-0.204,3.891-0.998c2.567,1.08,5.949,2.954,5.572,6.255
		c0.081,10.921-0.01,21.851,0.051,32.782c0.295,3.199-2.282,6.224-5.348,6.856c-2.781,0.815-5.684,0.53-8.496,0.601
		c-1.742,10.859-8.985,19.854-17.186,26.751c-14.588,12.163-31.743,20.629-47.207,31.549c-10.839,7.549-21.393,16.279-27.974,27.933
		c-3.015,5.155-4.849,10.89-6.051,16.717c10.106,0.326,20.232,0.051,30.357,0.143c7.212-0.305,15.087,0.438,20.904,5.165
		c-0.092,1.416,0.306,2.679,1.447,3.657c2.832,4.696-0.255,10.421,1.813,15.321c0.122,1.202-0.998,2.037-1.62,2.903
		c-4.472,4.686-11.196,6.56-17.501,6.672c-10.584,0.132-21.169-0.173-31.743,0.143c2.353,2.19,5.542,3.158,8.129,5.073
		c12.805,8.465,23.145,21.872,24.806,37.488c0.958,11.389-1.793,22.687-4.809,33.587c-5.857,19.417-14.323,38.313-26.771,54.44
		c-8.211,10.503-19.03,20.455-32.711,22.513c0.693,1.528,2.812,1.273,4.207,1.956c5.827,1.874,11.124,5.684,14.374,10.941
		c2.75,4.543,3.423,10.35,1.508,15.342c-2.129,5.735-6.907,10.187-12.377,12.744c-2.455,1.222-5.236,1.62-7.539,3.107
		c7.63,1.548,15.107,5.898,18.877,12.917c2.812,5.114,2.832,11.603,0.041,16.727c-3.79,7.06-11.226,11.562-18.978,12.968
		c2.139,1.742,5.287,1.66,7.66,3.158c8.608,3.932,15.576,13.498,12.866,23.257c-3.025,10.666-14.211,16.676-24.673,17.532
		c4.635,2.333,9.678,4.034,13.65,7.559c13.926,11.369,23.115,27.485,29.858,43.906c-1.63,3.107,1.029,6.071,1.548,9.097
		c0.499,1.273,0.346,3.219,1.772,3.973l-1.446-2.781c2.699-0.774,2.159,2.547,2.903,4.095c3.117,10.9,2.455,23.328-4.299,32.772
		c-9.994,13.966-27.373,20.751-44.018,22.024c-12.989,1.07-26.588-1.059-37.835-7.905c-8.934-5.369-15.708-14.415-17.726-24.693
		c-2.699-12.234,0.571-24.765,4.258-36.429c5.155-15.219,12.367-30.245,23.827-41.757c4.808-4.543,10.533-8.618,17.247-9.596
		c-0.754-1.64-2.771-1.324-4.115-1.946c-7.437-2.261-14.303-7.793-16.625-15.393c-1.966-6.265,0.234-13.192,4.686-17.837
		c4.116-4.768,10.187-6.815,15.902-8.914c-7.61-1.528-15.097-5.705-18.958-12.642c-2.893-4.992-3.127-11.379-0.52-16.534
		c3.545-7.08,10.798-11.96,18.561-13.213c-0.265-1.915-2.659-1.508-3.901-2.241c-7.895-2.689-15.24-9.25-16.33-17.858
		c-1.029-7.049,2.923-13.926,8.496-18c4.421-3.718,10.157-4.829,15.495-6.479c-12.866-3.443-23.359-12.286-31.804-22.259
		c-14.15-17.094-24.306-37.274-31.04-58.362c-1.874-6.693-4.003-13.477-4.116-20.466c0.469-5.725-0.621-11.644,1.335-17.165
		c4.136-13.722,14.578-24.846,26.863-31.834c1.487-0.978,3.484-1.396,4.462-3.036c-10.187,0.071-20.374,0.02-30.551,0.051
		c-5.226,0.082-10.493-1.07-15.026-3.667c-3.576-2.2-6.713-5.847-6.601-10.258c-0.031-3.983-0.672-8.455,1.895-11.858
		c3.83-5.236,10.574-7.345,16.788-7.885c12.367-0.336,24.775,0.234,37.142-0.275c-2.333-13.294-10.156-25.019-20.201-33.78
		c-6.509-5.909-13.732-10.931-21.067-15.729c-6.571,10.37-16.309,18.357-26.669,24.724c-25.834,15.097-57.017,20.262-86.498,15.984
		c-16.819-2.516-33.413-8.455-46.993-18.866c-11.359-8.628-20.242-20.517-24.968-33.994c-3.993-11.022-5.185-22.849-4.686-34.503
		c0.876-24.642-0.407-49.672-7.447-73.438c-5.807-19.274-15.627-38.487-32.436-50.365c-9.657-7.09-22.727-9.79-34.137-5.674
		c-14.354,5.165-24.907,17.725-31.152,31.264c-8.292,19.488-11.909,40.575-14.72,61.458c-1.864,17.501-3.688,35.268-1.396,52.82
		c-10.167,0.163-20.354,0.245-30.51-0.224c0.224,2.353,2.781,1.905,4.431,1.986c32.262-0.041,64.535-0.112,96.807-0.061
		c5.695-0.03,11.593,1.304,16.218,4.778c2.363,1.783,4.401,4.482,4.095,7.62c-0.112,33.719,0.142,67.458-0.122,101.167
		c-1.865,6.683-9.545,9.331-15.739,10.269c3.331,3.993,6.072,8.914,5.572,14.303c-0.071,7.07-5.052,12.795-10.615,16.544
		c-0.367,2.312,0.051,4.676,0.061,7.019c6.52,3.953,11.552,11.297,10.493,19.192c-0.948,9.301-9.26,15.943-17.685,18.561
		c1.986,1.722,4.768,2.16,6.958,3.667c6.01,3.688,11.053,10.146,10.798,17.512c0.194,6.693-4.126,12.581-9.311,16.391
		c-2.618,2.048-6.061,2.628-8.659,4.645c5.634,1.457,10.717,4.869,14.303,9.464c4.177,5.42,4.93,13.284,1.65,19.325
		c-3.158,6.265-9.545,10.095-15.943,12.377c5.053,2.251,10.35,4.635,13.752,9.24c5.022,5.888,5.685,15.005,1.345,21.454
		c-3.332,5.491-9.168,8.557-14.863,11.022c6.387,2.587,12.713,6.408,15.932,12.785c-1.711-0.581-2.058,2.241-0.448,1.997
		c0.295-0.367,0.886-1.08,1.182-1.436c0.876,4.279,1.762,8.842,0.194,13.101c-2.588,7.335-9.321,12.54-16.615,14.71
		c0.948,1.518,2.842,1.803,4.36,2.618c7.691,3.555,14.16,11.542,13.05,20.425c-0.917,9.413-9.301,16.269-17.909,18.775
		c3.433,2.099,7.538,3.107,10.503,6.041c5.929,4.635,9.077,12.795,6.785,20.119c-1.885,6.296-7.162,10.971-12.907,13.773
		c-2.404,1.273-5.246,1.508-7.508,3.026c7.396,1.365,14.588,5.481,18.55,12.031c3.555,5.684,3.423,13.406-0.275,19.009
		c-4.819,7.549-13.763,11.511-22.463,12.275c4.645,2.119,9.494,3.953,13.498,7.263c13.325,10.798,22.33,25.936,29.084,41.492
		c4.39,10.971,8.75,22.707,7.396,34.728c-1.528,12.622-10.666,22.962-21.484,28.931c-14.955,8.119-32.843,10.35-49.448,6.927
		c-12.652-2.71-25.009-9.932-31.091-21.708c-4.625-8.903-5.307-19.396-3.443-29.125c2.934-16.085,8.954-31.631,17.603-45.505
		c6.52-10.238,15.403-19.926,27.536-23.155c-3.494-1.691-7.437-2.353-10.625-4.656c-6.459-3.871-11.389-11.175-10.462-18.927
		c0.805-8.944,8.496-15.678,16.584-18.408c1.396-0.642,3.321-0.428,4.34-1.752c-7.365-1.528-14.486-5.603-18.449-12.143
		c-3.352-5.399-3.423-12.622-0.204-18.092c3.25-5.776,9.077-9.586,15.27-11.593c-2.292-2.058-5.562-2.547-7.956-4.452
		c-5.216-3.627-9.535-9.311-9.637-15.882c-0.499-7.223,4.075-13.865,9.963-17.634c2.394-1.823,5.501-2.394,7.865-4.279
		c-6.683-1.986-12.968-6.316-16.055-12.703c-3.066-5.949-2.149-13.528,1.936-18.764c3.351-4.839,8.761-7.488,13.987-9.81
		c-5.766-2.526-11.705-5.664-14.975-11.297c-3.79-5.756-3.515-13.488,0.031-19.284c-7.029,2.098-14.374,2.812-21.668,2.17
		c4.635,2.404,9.484,4.666,13.08,8.608c5.776,5.847,8.771,14.72,6.285,22.758c-3.036,10.37-12.795,17.359-22.849,20.099
		c-14.496,4.044-31.814,0.734-42.011-10.839c-2.506-2.649-3.565-6.184-5.532-9.148c-3.352,2.893-7.976,3.667-11.501,5.97
		c5.562,1.426,10.707,4.218,15.046,7.966c1.64,1.559,3.983,1.864,6.051,2.669c7.763,2.75,14.893,8.19,18.428,15.79
		c2.995,6.285,2.7,13.977-0.693,20.058c-3.555,6.438-9.657,11.226-16.432,13.926c-2.017,0.815-4.248,1.151-6.051,2.404
		c6.418,5.847,9.229,15.474,6.448,23.777c-2.669,8.139-9.566,14.394-17.318,17.675c-1.823,0.856-4.003,1.131-5.491,2.547
		c8.883,2.323,17.226,7.966,21.464,16.279c3.402,6.601,3.148,14.832-0.55,21.271c-4.594,7.987-12.968,13.437-21.871,15.372
		c5.969,1.966,11.939,4.482,16.523,8.944c6.805,6.102,10.34,16.177,7.131,24.999c-3.79,11.277-15.168,18.102-26.364,20.252
		l-0.448,0.958c9.504,1.345,18.662,6.489,24.082,14.527c4.217,6.194,5.144,14.506,2.139,21.413
		c-4.645,10.778-16.034,17.216-27.281,18.815c-1.64,0.499-4.014-0.367-5.063,1.263c12.224,2.251,22.147,10.696,30.245,19.671
		c10.605,12.041,18.775,26.058,25.233,40.697c5.216,12.275,9.79,25.131,10.594,38.558c0.662,13.457-5.481,26.659-15.382,35.624
		c-11.491,10.493-26.588,16.33-41.808,18.714c-17.491,2.598-36.083,0.835-51.913-7.437c-10.839-5.593-19.854-15.036-24.031-26.578
		c-4.268-11.348-3.851-23.889-1.324-35.573c3.698-17.583,10.197-34.595,19.203-50.151c6.927-11.654,15.535-23.012,27.515-29.817
		c3.779-2.404,8.333-2.863,12.347-4.655c-7.926-1.854-15.932-4.819-21.637-10.849c-6.286-6.143-9.28-15.82-6.163-24.235
		c3.993-11.185,15.352-18.296,26.731-20.018l-0.601-0.937c-8.027-1.701-15.861-5.409-21.271-11.715
		c-5.165-5.786-7.528-14.231-5.206-21.749c2.608-9.097,10.543-15.698,19.121-19.009c1.08-0.652,2.313-0.316,3.443,0.132
		c-0.082-0.795-0.132-1.559-0.132-2.312c-7.457-1.752-14.262-6.286-18.775-12.459c-4.218-5.735-5.786-13.488-3.494-20.293
		c2.781-8.7,10.38-15.148,18.724-18.327c1.324-0.652,2.995-0.815,4.034-1.976c-4.228-1.192-8.241-3.026-11.848-5.521
		c-1.263-1.131-2.975-0.56-4.421-0.52c-10.493,1.019-21.647-1.477-29.96-8.14c-1.334-0.927-2.486-2.424-4.187-2.455
		c1.742,8.7-2.048,17.725-8.802,23.277c-13.345,11.247-33.892,12.102-48.755,3.352c-7.131-4.411-13.192-11.756-13.549-20.445
		c-0.886-8.649,4.289-16.737,11.063-21.678c16.197-11.644,40.972-9.902,54.735,4.829c-2.007-7.518-0.071-15.79,5.104-21.596
		c8.679-10.024,22.88-13.752,35.726-12.214c-4.971-4.931-9.016-11.348-8.924-18.581c-0.102-10.207,7.202-18.999,15.973-23.44
		c2.445-1.609,5.664-1.813,7.854-3.759c-9.362-2.414-18.163-8.598-22.045-17.654c-2.873-6.56-2.16-14.404,1.579-20.466
		c4.676-7.65,12.805-12.795,21.454-14.802c-6.55-2.058-13.05-4.992-17.736-10.136c-5.786-5.817-8.639-14.741-6.214-22.697
		c2.577-9.189,10.574-15.912,19.264-19.162c1.172-0.713,3.331-0.356,3.596-2.078c-7.62-1.62-14.496-6.245-19.131-12.469
		c-4.105-5.572-5.766-13.039-3.708-19.722c2.995-10.391,12.744-17.705,22.931-20.231c-0.754-1.447-2.547-1.385-3.8-2.017
		c-8.985-3.321-17.155-10.533-19.417-20.109c-2.19-8.567,1.701-17.705,8.201-23.339c1.447-1.365,3.331-2.272,4.452-3.953
		c-33.617,0.081-67.245-0.061-100.862,0.061c2.302,1.487,5.114,1.671,7.62,2.75c6.968,2.924,13.477,7.752,16.88,14.659
		c3.464,6.723,3.087,15.209-0.896,21.637c-4.92,8.139-13.773,13.192-22.9,15.158c-4.717,1.069-9.586-0.143-14.292,0.835
		c5.022,4.065,8.975,9.545,10.33,15.953c-2.037,1.1-0.744,4.177-1.08,6.112c0.489-1.701,0.978-3.402,1.742-4.992
		c-0.234,6.937-2.231,14.048-7.263,19.07c-10.961,11.43-28.738,13.905-43.417,9.281c-0.275,2.323,2.211,3.158,3.443,4.696
		c4.004,4.584,6.662,10.605,6.255,16.788c-0.265,8.262-5.593,15.586-12.316,20.028c-11.756,7.834-27.25,8.659-40.28,3.677
		c3.545,5.022,5.99,11.155,5.094,17.399c-1.151,8.792-7.549,16.096-15.219,20.119c-12.306,6.622-27.75,6.54-40.259,0.469
		c2.577,8.455-0.499,17.797-6.846,23.746c-12.632,11.949-33.016,13.661-48.174,5.695c-0.051,4.146-0.805,8.282-0.092,12.438
		c0.051-2.944-0.183-6.122,1.446-8.751c-0.244,4.248,0.183,8.73-1.609,12.734c-2.435,6.377-7.63,11.165-13.345,14.639
		c4.982,3.077,9.138,7.671,10.788,13.396c14.629-6.56,33.159-5.165,45.546,5.45c5.511,4.818,9.494,12,8.802,19.508l1.467,0.071
		c5.542-7.62,14.578-12,23.726-13.498c12.204-2.037,25.742,0.917,34.941,9.505c5.919,5.287,9.229,13.365,8.089,21.311
		c2.262-0.591,1.752-4.757,4.146-4.442c-0.061-2.537,2.72-3.912,4.085-5.745c0.591,0,1.783,0,2.374,0
		c-0.122-0.306-0.367-0.927-0.489-1.233c13.447-10.37,33.546-10.472,47.747-1.467c6.683,4.258,12.123,11.267,12.673,19.406
		c1.12,9.331-4.737,18.082-12.286,23.043c-15.087,9.739-36.724,8.985-50.416-2.924c-6.357-5.43-9.983-14.027-8.415-22.371
		c-1.813,0.988-2.078,3.209-3.189,4.778c-4.492,6.907-11.98,11.328-19.783,13.539c-11.674,3.188-24.795,1.742-35.064-4.829
		c-8.038-5.063-13.834-14.211-12.795-23.95c-11.185,15.413-33.678,19.427-50.497,11.634c-1.365,5.491-4.217,10.686-8.944,13.977
		c-3.647,3.005-8.302,4.167-12.591,5.898c6.652,1.396,13.09,4.696,17.298,10.167c4.35,5.358,5.267,13.223,2.037,19.366
		c-4.37,8.323-13.64,12.958-22.727,13.813c1.375,1.824,4.105,1.813,5.99,3.046c11.939,6.326,20.395,17.45,27.271,28.788
		c6.336,10.666,11.409,22.157,14.496,34.198c2.272,8.394,2.771,17.603-0.642,25.773c-5.277,13.06-17.949,21.617-31.009,25.682
		c-17.165,5.338-36.785,5.022-52.81-3.667c-8.608-4.717-15.596-12.55-18.469-22.014c-3.565-10.961-1.66-22.717,1.324-33.566
		c4.34-15.413,10.951-30.439,20.975-43.03c5.786-7.202,13.345-13.172,22.473-15.342c-5.98-1.742-12.143-3.973-16.37-8.781
		c-4.503-4.584-6.662-11.521-4.798-17.756c2.17-7.477,8.832-12.887,15.994-15.352c1.304-0.733,3.514-0.275,4.146-1.885
		c-8.73-1.711-17.338-7.447-20.079-16.238c-1.599-4.819-0.377-9.932,1.661-14.394c-12.459-1.029-24.989-7.977-30.103-19.793
		c-3.667,0.621-7.396,0.937-11.083,0.448c1.253,4.34,2.608,8.883,1.579,13.437c-1.701,9.943-9.963,17.471-18.958,21.158
		c-1.508,0.672-3.392,0.764-4.503,2.078c7.233,2.149,14.191,6.01,18.754,12.173c4.635,5.939,6.448,14.15,3.902,21.352
		c-3.443,9.79-12.683,16.615-22.473,19.203l0.611,1.009c6.418,1.854,12.428,5.379,16.829,10.472
		c5.45,5.949,7.763,14.883,5.032,22.605c-2.924,8.832-10.768,15.138-19.233,18.347c-2.7,1.11-5.684,1.334-8.282,2.669
		c9.27,1.65,18.489,6.051,24.072,13.885c4.391,5.939,5.959,14.058,3.29,21.057c-3.474,9.647-12.622,16.167-22.198,18.948
		c-3.036,1.08-6.418,0.774-9.342,2.16c5.481,2.251,11.145,4.279,15.892,7.987c12.795,9.352,22.208,22.544,30.031,36.154
		c8.109,14.588,14.751,30.194,17.878,46.646c2.221,10.89,0.764,22.635-4.941,32.262c-7.263,12.51-19.905,21.016-33.281,25.885
		c-19.549,7.039-41.594,7.864-61.285,0.968c-12.917-4.492-24.683-13.427-30.734-25.875c-5.43-11.012-6.275-23.797-4.054-35.736
		c3.392-19.101,10.269-37.58,19.936-54.378c6.469-10.941,14.374-21.495,25.172-28.483c4.492-2.832,9.535-5.053,14.904-5.328
		l-0.01-1.151c-9.902-1.243-19.641-6.347-25.254-14.771c-4.166-6.112-5.042-14.343-2.221-21.179
		c4.35-10.513,15.219-16.809,25.997-18.877l0.723-0.774c-9.617-1.426-18.958-6.469-24.49-14.598
		c-4.177-6.234-5.094-14.557-2.139-21.474c3.698-8.812,12.133-14.761,21.087-17.4l0.632-1.039
		c-8.812-2.414-17.094-8.089-21.189-16.422c-2.425-4.696-2.73-10.248-1.63-15.332c2.424-9.138,10.167-16.065,18.765-19.417
		c1.508-0.703,3.382-0.886,4.584-2.139c-7.864-1.803-14.822-6.571-19.783-12.876c-9.667-1.681-19.315-6.499-24.714-14.965
		c-4.217-6.387-4.91-14.975-1.487-21.851c3.474-7.396,10.432-12.611,17.98-15.372c-6.713-0.621-13.63-1.12-19.753-4.228
		c-8.374-3.83-15.79-11.287-17.135-20.71c-0.958-5.104,0.672-10.218,2.862-14.781c-12.255,4.554-26.588,3.82-37.906-2.913
		c-6.856-4.085-12.561-10.788-13.742-18.877c-0.968-5.226,0.744-10.411,3.056-15.036c-9.881,4.095-21.352,4.146-31.366,0.469
		c-1.019-0.296-2.598-1.345-3.148,0.193c-3.891,6.499-10.89,10.228-18.031,12.061c2.516,1.742,5.807,1.915,8.394,3.606
		c7.64,3.881,13.671,12.265,12.072,21.138c-1.803,9.963-11.338,16.554-20.761,18.428c1.711,1.426,4.177,1.498,6.173,2.486
		c7.549,3.188,14.527,10.044,14.771,18.683c0.377,4.044-1.365,7.803-3.127,11.338c9.24,2.17,17.593,7.477,23.583,14.822
		c1.885-6.367,6.306-11.766,11.858-15.311c9.993-6.591,22.829-8.048,34.34-5.236c8.71,2.211,17.094,7.294,21.637,15.26
		c3.881,6.571,3.993,15.189,0.265,21.851c-4.482,8.241-13.07,13.579-22.004,15.78c-15.189,3.922-32.761-0.54-42.786-12.999
		c-1.854,5.46-5.328,10.289-9.953,13.742c4.971,11.328,9.097,23.155,10.686,35.471c1.202,8.832,0.092,18.184-4.207,26.099
		c-4.91,9.158-13.742,15.749-23.461,19.131c-14.527,5.083-30.734,4.727-45.342,0.143c-10.645-3.443-20.822-9.596-27.23-18.948
		c-5.257-7.589-7.141-17.298-5.44-26.344c2.302-13.478,7.813-26.191,14.405-38.089c-6.713,1.732-13.681,1.986-20.547,1.212
		c-9.81-1.538-19.488-6.571-24.989-15.056c-3.402-5.246-4.299-11.858-2.842-17.888c2.2-8.211,8.903-14.465,16.391-18.021
		c13.885-6.52,31.468-5.379,43.825,3.983c0.815-1.915-0.856-3.576-1.223-5.338c-2.587-8.017,1.864-16.605,8.476-21.158
		c3.484-2.893,8.16-3.586,12-5.633c-8.761-1.569-17.4-7.223-20.333-15.922c-2.343-6.713,0.214-14.333,5.287-19.07
		c3.942-4.289,9.596-5.98,14.771-8.129c-10.35-2.261-21.006-10.248-20.955-21.759c-11.022,5.226-23.889,5.409-35.369,1.579
		c2.313,4.319,3.678,9.291,2.934,14.211c-1.131,8.873-7.691,16.238-15.454,20.211c-11.032,5.827-24.561,6.296-36.184,1.956
		c3.29,6.55,4.706,15.138,0.367,21.525c-0.825-0.52-2.883-0.642-1.946,1.11c0.397,0.143,1.192,0.428,1.589,0.571
		c-3.26,4.859-7.63,8.964-12.876,11.603c0.081,2.842,0.02,5.705-0.173,8.577c10.38,0.153,21.128,3.79,28.31,11.542
		c4.513,4.645,7.202,11.165,6.683,17.695c-0.245,6.693-4.075,12.774-9.005,17.094c-7.314,6.285-17.063,9.26-26.619,9.27
		c-3.24,8.577-10.615,15.209-19.182,18.245c-1.324,0.55-2.914,0.734-3.881,1.875c8.068,2.007,15.556,6.825,20.221,13.773
		c4.065,6.234,5.022,14.486,1.997,21.342c-3.932,9.067-12.785,15.331-22.218,17.613c0.958,0.978,2.384,1.304,3.647,1.813
		c7.375,2.618,14.038,7.773,17.756,14.751c3.453,6.428,3.453,14.578-0.02,21.016c-4.177,7.926-12.163,13.223-20.588,15.739
		c-1.396,0.682-3.912-0.051-4.136,2.068c10.177,1.742,20.16,7.65,24.918,17.073c3.769,7.161,3.005,16.238-1.508,22.911
		c-6.662,9.8-18.683,14.883-30.276,15.199l0.509,0.815c8.781,1.762,16.472,6.795,23.033,12.713
		c11.552,10.686,20.293,24.031,27.464,37.936c5.776,11.471,10.574,23.491,13.457,36.021c2.404,10.044,2.577,20.924-1.508,30.571
		c-5.593,13.865-18.021,23.797-31.468,29.573c-19.793,8.435-42.633,9.993-63.241,3.647c-13.335-4.136-25.794-12.622-32.436-25.152
		c-6.275-11.399-7.182-25.04-4.839-37.651c2.73-15.688,8.058-30.877,15.077-45.159c5.807-11.674,13.009-22.85,22.625-31.763
		c5.898-5.358,13.009-9.718,21.006-10.931l-0.54-1.396c-9.759-1.834-19.416-7.182-24.388-16.034
		c-3.81-6.54-4.004-14.995-0.387-21.647c4.808-9.219,14.669-14.883,24.653-16.747l0.53-1.029
		c-9.576-1.63-18.968-6.734-24.215-15.107c-3.657-5.695-4.655-13.05-2.363-19.447c2.975-8.435,10.391-14.669,18.612-17.756
		c1.192-0.784,3.464-0.52,3.769-2.241c-8.537-1.956-16.37-7.498-20.7-15.148c-3.769-6.581-3.861-15.036-0.183-21.678
		c4.156-7.864,12.061-12.978,20.374-15.586l0.591-0.784c-9.994-2.72-19.539-9.678-22.717-19.875
		c-2.628-8.099,0.255-17.114,6.01-23.135c-8.527-0.285-16.798-3.178-23.746-8.078c-5.868-1.65-11.664-3.79-16.574-7.508
		c-0.173,3.097-0.336,6.316-1.732,9.178c-2.7,5.216-4.105,11.42-9.005,15.168c-2.975,3.015-7.314,4.024-10.554,6.489
		c6.397,1.905,12.336,6.01,15.566,11.949c3.158,5.684,2.791,13.101-0.896,18.459c-3.963,6.112-10.747,9.678-17.654,11.399
		c1.019,1.406,3.046,1.263,4.554,1.946c6.601,2.333,12.601,7.243,15.118,13.905c2.302,6.224,0.611,13.467-3.759,18.367
		c-5.063,5.654-12.489,8.954-20.007,9.525l0.693,0.917c9.627,2.873,17.104,10.055,23.42,17.562
		c9.678,12.082,16.9,26.048,21.8,40.707c3.005,9.199,5.206,19.223,2.628,28.799c-2.822,10.87-11.267,19.457-20.934,24.704
		c-14.598,7.875-32.008,10.146-48.236,6.958c-10.91-2.21-21.586-7.518-28.483-16.472c-6.53-8.302-8.72-19.294-7.6-29.644
		c1.172-10.696,4.38-21.077,8.374-31.03c5.195-12.469,11.898-24.754,22.004-33.933c4.482-4.075,9.871-7.335,15.932-8.313
		l-0.621-0.774c-6.988-1.467-13.793-5.114-17.848-11.134c-3.372-4.839-4.289-11.348-1.936-16.809
		c3.28-7.854,11.165-13.09,19.386-14.537c-0.642-1.497-2.516-1.385-3.759-1.966c-9.046-2.771-17.43-11.043-16.931-21.057
		c0.591-9.637,8.904-16.992,17.736-19.549c-6.571-4.299-14.476-6.856-20.476-12.173c-1.925-1.752-3.27-4.024-5.094-5.837
		c1.07,9.423-4.238,18.479-11.919,23.603c-16.921,11.328-43.407,9.138-55.631-8.088c-1.222,2.027-0.581,4.554-1.09,6.805
		c-1.783,7.946-7.752,14.445-14.843,18.184c-11.328,6.072-25.396,6.591-37.264,1.773c-6.917-2.863-13.325-7.752-16.595-14.619
		c-3.474-6.744-3.178-15.219,0.876-21.647c6.163-10.085,18.082-15.413,29.593-15.994c13.365-0.958,27.984,4.207,35.369,15.902
		c-0.703-7.447,2.037-14.944,7.416-20.14c16.513-16.004,47.696-14.343,60.888,5.114c-1.345-10.472,5.287-20.344,14.221-25.233
		c-2.099-3.779-3.759-8.058-3.077-12.438c0.367-3.861,2.394-7.223,4.523-10.33c-12.184,4.391-26.384,4.044-37.753-2.465
		c-10.136-5.348-17.277-17.41-13.691-28.891c-11.807,5.807-26.232,6.133-38.191,0.601c-7.763-3.586-14.629-10.106-16.768-18.591
		c-1.773-6.938,0.367-14.211,4.533-19.844c-11.725,4.126-25.223,4.177-36.419-1.569c-7.783-3.922-14.547-11.053-15.892-19.926
		c-1.508-8.822,3.178-17.756,10.218-22.911l-1.273-0.805c-11.888,3.596-25.417,2.669-36.113-3.902
		c-7.457-4.482-13.376-12.326-13.63-21.26c-0.306-8.017,4.411-15.087,10.116-20.282c-10.533,0.774-21.637-1.722-29.98-8.435
		c-6.418-4.961-10.829-13.019-9.943-21.271c0.754-8.812,7.039-16.208,14.527-20.425c2.262-1.447,5.083-1.864,7.111-3.698
		c-40.453,0.102-80.905-0.092-121.348,0.092c0.856,0.642,1.823,1.07,2.893,1.294c9.81,2.068,19.203,8.262,23.42,17.583
		c3.036,6.622,2.445,14.649-1.345,20.843c-4.635,7.702-12.805,12.724-21.393,14.873c6.153,2.027,12.398,4.615,16.931,9.453
		c5.909,5.583,9.219,14.241,7.182,22.289c-2.149,9.576-10.34,16.727-19.243,20.089c-1.273,0.652-3.117,0.611-3.851,2.047
		c9.515,2.567,18.642,8.944,22.218,18.418c2.72,6.876,1.457,14.924-2.679,20.965c-4.605,6.53-11.634,11.359-19.467,13.06
		l0.428,0.978c6.143,2.068,12.122,5.134,16.503,10.055c5.277,5.603,8.027,13.824,6.041,21.413
		c-2.251,9.484-10.37,16.534-19.203,19.895c-1.273,0.693-3.311,0.469-3.82,2.129c10.574,2.598,20.659,10.493,23.125,21.495
		c1.508,5.888-0.245,12-3.036,17.226c8.221,5.837,13.06,16.462,10.167,26.425c13.885-15.026,39.159-16.564,55.377-4.452
		c6.734,5.104,11.45,13.416,10.442,22.065l1.345-0.438c0.856-9.199,7.956-16.595,15.902-20.568
		c14.781-7.375,34.239-5.888,46.809,5.216c6.622,5.817,10.258,15.362,7.763,24.021c-2.435,8.7-9.861,15.108-17.96,18.52
		c-14.557,6.031-32.863,4.034-44.67-6.795c-5.379-4.961-8.944-12.347-7.976-19.763l-1.345,0.01
		c-0.632,7.589-5.695,14.017-11.725,18.296c-9.138,6.163-20.72,8.2-31.508,6.357c-9.117-1.538-18.143-5.98-23.603-13.641
		c-3.606-4.91-5.379-11.328-3.963-17.338c0.458,2.231,0.611,4.523,0.744,6.825c0.795-3.168-0.367-6.285-0.917-9.372
		c-2.863,2.027-0.805,5.735-1.61,8.628c-1.579,11.868-12.428,20.323-23.43,23.237l0.662,0.907
		c9.077,2.638,17.644,8.74,21.372,17.674c2.863,6.703,1.946,14.68-1.925,20.802c-4.554,7.08-12.112,11.858-20.14,14.048
		c1.182,1.335,3.127,1.559,4.696,2.302c8.567,3.453,16.309,10.472,18.469,19.722c2.048,8.038-1.222,16.697-7.11,22.32
		c-5.338,5.501-12.652,8.302-19.885,10.289c3.881,2.027,8.496,2.516,12.275,4.951c6.55,3.555,12.214,9.403,14.394,16.666
		c2.404,7.793-0.061,16.676-5.715,22.473c-5.542,6.173-13.416,9.831-21.495,11.236c-1.64-1.426-3.871-0.947-5.847-1.029
		c-3.117,0.132-6.397-0.54-9.341,0.754c-1.467,0.55-3.036-0.224-4.472-0.458c-9.566-2.486-18.795-8.547-22.839-17.838
		c-3.321-7.355-1.976-16.299,2.852-22.656c5.521-7.885,14.781-11.797,23.868-13.865c-3.504-1.497-7.416-1.762-10.778-3.626
		c-9.117-4.034-17.135-12.489-17.725-22.839c-0.764-9.881,5.817-18.805,14.028-23.634c3.015-2.149,6.856-2.679,9.881-4.727
		c-8.18-2.119-15.81-6.988-20.374-14.191c-4.289-6.54-4.778-15.362-1.172-22.31c3.993-8.037,11.949-13.437,20.374-16.004l0.509-1.11
		c-8.74-2.394-16.972-8.048-21.006-16.34c-3.026-6.051-3.056-13.488-0.071-19.559c1.436-3.24,3.861-5.868,6.153-8.506
		c-0.652-5.267,0.835-10.452,3.453-14.985c-2.414-0.255-4.554,1.039-6.805,1.64c-11.858,3.331-25.203,1.752-35.604-4.992
		c-5.929-4.004-10.839-10.044-12.112-17.216c-1.324-6.723,0.958-13.803,5.348-18.958c4.238-5.236,10.299-8.7,16.646-10.747
		c12.927-3.983,27.597-1.986,38.711,5.817c1.905-0.917,4.146-1.314,5.735-2.761c-8.465-2.333-16.411-7.518-20.802-15.27
		c-3.494-6.092-3.942-13.854-0.988-20.242c3.535-8.007,11.073-13.641,19.203-16.401c0.998-0.234,1.742-0.774,2.241-1.62
		c-8.944-2.567-17.512-8.333-21.383-17.043c-3.097-6.56-2.537-14.557,1.161-20.751c4.492-7.548,12.387-12.724,20.812-14.853
		c-2.822-1.997-6.55-2.435-9.433-4.472c-7.793-4.472-14.313-12.459-14.537-21.76c-0.418-8.455,4.554-16.32,11.216-21.169
		c3.627-2.903,8.078-4.391,12.306-6.173c-3.331-2.078-7.335-2.873-10.523-5.256c-7.875-4.971-13.936-13.926-12.927-23.542
		c0.896-10.432,9.199-18.724,18.489-22.615c3.178-1.691,6.927-1.691,10.106-3.351c-33.108-0.316-66.246-0.082-99.364-0.112
		c6.489,3.861,12.948,9.932,13.06,18.051c-0.357,5.593,0.978,11.45-1.284,16.788c-1.345,3.953-4.177,7.09-6.744,10.289
		c4.717,3.769,8.333,9.423,8.089,15.647c0.183,3.637-1.487,6.938-2.975,10.146c4.717,6.866,5.134,16.116,1.294,23.471
		c2.292,5.002,2.078,10.737,0.02,15.78c8.995,2.231,17.654,7.6,22.024,15.994c3.341,6.133,3.392,13.793,0.367,20.068
		c-3.27,6.886-9.586,11.837-16.493,14.761l-1.059,0.937c9.861-0.866,20.272,0.479,28.697,6.01
		c7.559,4.696,13.539,13.039,13.029,22.248c-0.031,7.915-5.022,14.883-11.134,19.508c-10.758,7.783-24.979,9.097-37.621,5.919
		c4.207,5.705,5.297,13.763,1.64,20.017c-3.178,6.286-9.678,9.545-15.739,12.398c7.263,2.241,14.241,7.172,16.9,14.547
		c2.689,6.886,0.173,14.965-5.175,19.865c-3.158,3.515-7.834,4.818-11.644,7.284c8.241,2.353,16.085,8.71,17.654,17.501
		c1.273,6.978-2.221,14.078-7.701,18.316c-3.606,3.188-8.272,4.645-12.754,6.133c4.961,2.149,10.442,3.739,14.323,7.813
		c5.114,4.666,7.752,12.123,5.695,18.887c-2.73,8.781-11.287,14.608-20.007,16.35c-1.396,0.52-3.504-0.122-4.289,1.467
		c6.937,1.447,12.744,5.919,17.837,10.625c12.469,12.245,20.985,27.974,27.047,44.222c4.075,11.43,7.457,24.398,2.547,36.133
		c-5.817,14.435-20.445,23.104-34.942,26.833c-14.496,3.627-30.317,3.352-44.191-2.537c-8.078-3.352-15.311-9.097-19.763-16.697
		c-5.501-9.28-6.408-20.649-4.35-31.07c2.944-15.973,8.934-31.407,17.532-45.19c5.766-8.761,12.897-17.44,22.86-21.484
		c1.548-0.876,3.963-0.601,4.91-2.272c-8.679-1.375-17.185-6.907-20.374-15.332c-2.425-6.316-0.509-13.661,4.014-18.52
		c4.065-4.869,10.126-7.049,15.851-9.209c-6.153-1.671-12.245-4.452-16.34-9.505c-4.085-4.676-5.756-11.471-3.718-17.399
		c2.598-7.579,9.566-13.1,17.206-15.026c-0.856-1.172-2.404-1.324-3.596-1.936c-7.406-3.117-13.936-9.881-14.466-18.225
		c-0.499-7.773,4.676-14.73,11.114-18.53c1.976-1.528,4.849-1.671,6.479-3.596c-7.467-2.435-14.537-7.762-16.88-15.525
		c-2.231-7.08,0.825-14.934,6.408-19.539c2.944-3.189,7.324-4.177,10.839-6.509c-7.712-2.231-14.975-7.793-17.287-15.739
		c-2.027-6.56,0.57-13.803,5.43-18.418c3.209-3.352,7.457-5.348,11.715-6.988c-4.696-2.404-9.749-4.564-13.141-8.822
		c-4.961-5.552-6.245-14.18-2.445-20.71c2.7-5.695,9.403-8.048,11.623-14.079c-6.55-2.862-11.766-8.465-13.691-15.403
		c-7.824-4.727-14.313-13.009-13.905-22.544c-0.01-9.138,6.346-16.768,13.64-21.556c0.122-3.667,0.795-7.345,2.883-10.432
		c-6.886-3.708-13.447-9.026-16.126-16.635c-3.311-8.557-0.194-18.51,6.316-24.683c4.808-5.043,11.44-7.538,17.878-9.739
		c-6.204-0.845-13.09-2.292-17.084-7.579c-1.722-1.976-1.773-4.686-1.732-7.141c0.102-32.293-0.112-64.576,0.031-96.858
		c-0.234-3.749,2.496-6.886,5.46-8.781c4.391-2.801,9.678-3.912,14.832-3.912c18.113-0.041,36.225,0,54.327-0.02
		c0.845-9.005,0.815-18.031,0.397-27.047c1.355-3.148,1.243-6.56,0.805-9.881c-0.672,1.834,0.825,6.153-1.722,6.438
		c0.846-2.526,0.336-5.124,0.112-7.671c-1.65-18.163-4.411-36.276-9.097-53.91c-3.311-12.173-7.498-24.479-15.495-34.442
		c-7.437-9.576-18.011-17.583-30.378-18.917c-11.216-1.345-22.299,3.484-30.663,10.707c-12.387,10.462-20.486,25.081-25.885,40.167
		c-8.058,22.941-10.248,47.502-9.973,71.686c-0.041,6.438,0.784,12.876,0.204,19.325c-0.713,17.053-6.774,34.076-18.062,47.013
		c-10.717,12.479-25.468,20.904-41.033,25.794c-0.346-0.275-1.029-0.835-1.375-1.121c0.132,0.346,0.377,1.039,0.499,1.385
		c-23.491,6.856-48.847,6.652-72.45,0.397c-16.656-4.472-32.721-12.112-45.587-23.766c-10.493-9.484-18.663-21.943-21.678-35.879
		c-19.742,14.414-42.704,24.571-59.971,42.235c-8.017,8.007-14.007,18.357-15.657,29.675c11.338,0.041,22.687,0,34.025,0.01
		c6.907-0.143,14.384,1.783,19.141,7.09c3.311,3.535,2.567,8.69,2.526,13.131c0.02,3.79-2.587,6.958-5.532,9.066
		c-4.686,3.301-10.544,4.401-16.177,4.503c-10.493,0.02-20.985-0.082-31.478,0.031c12.459,5.858,23.593,15.362,29.675,27.892
		c4.757,9.474,5.46,20.506,3.29,30.785c-4.014,19.957-12.336,38.904-22.962,56.202c-9.362,14.455-20.782,28.88-36.989,35.889
		c-2.037,1.172-4.981,0.846-6.53,2.669c8.323,0.795,16.666,4.859,21.362,11.97c3.871,5.766,3.922,13.865,0.041,19.651
		c-3.953,6.367-11.043,9.963-18.133,11.695c2.241,1.192,4.757,1.66,7.08,2.669c5.735,2.618,10.696,7.223,13.039,13.151l-0.713,0.55
		c-0.224,3.83-0.733,7.905,0.601,11.623c-3.27,7.997-11.175,13.264-19.447,14.975l0.703,0.998c7.62,1.844,15.077,6.53,18.306,13.936
		c2.425,5.246,1.874,11.623-1.182,16.503c-4.024,6.52-11.267,10.707-18.744,11.929c0.764,1.487,2.771,1.304,4.116,1.987
		c7.538,2.567,13.386,8.384,18.408,14.354c10.36,13.365,17.165,29.227,21.321,45.546c2.516,10.167,3.861,21.108,0.316,31.213
		c-3.586,10.839-12.51,19.345-22.962,23.614c-16.106,6.734-34.738,6.255-51.027,0.367c-11.246-4.126-21.922-11.593-27.199-22.636
		c-4.044-8.18-4.054-17.746-1.864-26.446c3.881-15.841,11.073-30.806,20.405-44.151c6.061-8.211,13.213-16.055,22.503-20.619
		c1.813-0.978,4.075-1.121,5.633-2.516c-8.139-0.846-16.381-4.34-21.362-11.043c-3.871-5.043-4.961-12.173-2.292-18.011
		c3.199-7.345,10.533-12.133,18.133-13.956l0.652-1.141c-7.915-1.701-15.556-6.622-18.836-14.231
		c-2.934-6.54-1.141-14.578,3.82-19.63c4.095-4.686,9.983-7.324,15.943-8.72c-5.572-2.099-11.593-3.942-15.586-8.679
		c-5.318-5.043-7.182-13.467-4.105-20.181c3.341-7.62,11.104-12.469,19.04-14.089l0.662-0.968
		c-9.545-1.487-17.98-6.907-24.734-13.61c-11.073-10.89-19.05-24.5-25.498-38.517c-5.633-12.52-10.116-25.62-12.703-39.118
		c-1.864-9.454-2.577-19.498,0.733-28.727c5.073-15.056,17.644-26.344,31.61-33.179c-10.187-0.112-20.374-0.01-30.571-0.02
		c-7.039-0.02-14.792-1.64-19.722-7.06c-3.433-3.392-2.822-8.639-2.74-13.029c0-4.115,2.863-7.467,6.071-9.688
		c4.289-2.679,9.352-4.004,14.394-3.993c11.756-0.051,23.512-0.01,35.267-0.02c-1.783-13.141-9.688-24.642-19.335-33.383
		c-18.632-17.084-42.46-26.945-61.784-43.101c-8.241-6.886-15.342-15.871-17.216-26.7c-3.698-0.183-7.813,0.53-11.012-1.773
		c-2.221-1.192-2.863-3.993-2.73-6.306c0.061-10.513,0-21.016,0.02-31.519c-0.194-2.496,1.294-4.727,3.311-6.041
		c-1.823,6.285-0.458,12.876-1.487,19.294c0.092,7.355-0.102,14.71,0.081,22.065c-0.173-12.428,0.367-24.867,0.56-37.295
		c0.326-1.834,2.088-3.372,3.973-3.301c7.701-0.224,15.433,0.357,23.114-0.275c-7.976-0.988-16.136,0.224-24.133-0.581
		c-0.143-0.153-0.418-0.458-0.56-0.611c8.374-0.866,16.951-0.295,25.406-0.469c-10.156-11.42-19.895-23.328-27.586-36.582
		c-9.199-15.729-15.994-33.179-17.756-51.404l-0.846,0.031v-26.71c0.194-0.591,0.591-1.783,0.784-2.374
		c2.231-19.101,8.17-37.549,15.291-55.346c14.578-36.082,33.261-70.535,44.731-107.84c7.834-25.009,12.204-51.21,11.603-77.452
		c-8.364-1.294-16.666-4.044-23.461-9.209c-6.153-4.574-11.094-11.409-11.776-19.223c-0.733-7.457,2.71-14.812,7.997-19.926
		c8.965-8.903,21.912-12.724,34.3-12.958c56.029,0,112.057-0.02,168.086,0.01c13.671,0.397,28.177,5.358,36.694,16.574
		c5.786,7.375,6.591,18.255,1.569,26.232c-6.723,11.012-19.508,16.768-31.906,18.418c-0.662,29.522,5.481,58.84,15.219,86.6
		c11.868,34.32,29.125,66.419,42.419,100.159c8.211,21.108,14.608,43.315,14.812,66.114c0.132,17.226-3.525,34.432-10.472,50.191
		c-8.078,18.479-20.007,35.054-33.526,49.937c-1.335,1.569-3.087,2.893-3.922,4.849c7.701-0.234,15.403-0.163,23.104-0.092
		c3.372-0.122,6.418,1.569,8.486,4.177l-0.978,0.662c-0.051,11.287,0.438,22.707-0.132,34.035c-0.092,1.345,0.418,2.628,0.672,3.953
		c-2.608,4.655-8.557,3.83-13.05,4.075c-0.601,2.75-1.406,5.44-2.099,8.18c2.465-2.149,5.552-2.862,8.751-2.557
		c0.733,8.669-0.051,17.675,3.321,25.916c6.224,16.635,21.821,27.76,37.987,33.668c9.056,3.097,18.632,5.715,28.269,5.216
		c-1.844,0.948-3.902,1.294-5.908,1.671c2.231,0.051,4.472,0.051,6.703-0.041l-0.061-1.131c2.17,0.031,4.35,0.041,6.53,0.051
		c1.355,2.231,5.379,1.151,7.742,0.835c-2.312-0.031-4.717,0.143-6.581-1.477c4.004,0.876,8.048-0.224,12.01-0.825
		c14.618-2.649,29.002-9.79,37.987-21.933c8.292-10.87,11.338-24.918,10.931-38.385c-0.591-10.156-0.642-20.344-0.071-30.5
		c1.416-28.758,7.192-58.046,21.963-83.096c9.291-15.729,22.574-29.451,39.088-37.539c16.89-8.404,37.03-9.902,55.03-4.34
		c24.479,7.559,43.753,27.974,52.575,51.709c6.255,16.707,9.586,34.351,12.061,51.964c0.54,3.494,0.469,7.111,1.62,10.503
		c1.059-2.812,1.416-5.908,3.138-8.425c10.574-17.012,21.138-34.025,31.702-51.047c2.567-4.604,5.796-9.046,10.503-11.654
		c10.625-6.499,24.113-5.46,35.104-0.448c3.433-5.776,7.426-11.257,10.442-17.257c-6.927-2.16-14.068-5.532-17.909-12.01
		c-3.718-5.593-3.718-13.202-0.092-18.836c11.797-18.846,23.349-37.865,35.308-56.609c9.79-12.398,28.493-13.447,41.869-6.581
		c6.316-9.586,12.326-19.406,18.225-29.247c-7.559-2.374-15.596-5.909-19.518-13.253c-3.239-5.532-3.026-12.744,0.479-18.102
		c11.308-18.235,22.676-36.439,33.943-54.704c4.421-7.08,12.479-11.175,20.578-12.296c7.773-1.253,15.566,0.754,22.646,3.891
		c3.861-5.582,7.141-11.542,10.88-17.196c-6.275-2.037-12.713-4.778-16.819-10.187c-4.839-5.705-5.572-14.445-1.467-20.751
		c9.922-16.045,19.916-32.048,29.848-48.083c3.392-5.267,6.265-11.348,12.021-14.496c10.666-6.835,24.388-5.735,35.573-0.764
		c6.051-9.606,11.909-19.345,18.082-28.88c-4.054-1.925-8.537-2.954-12.224-5.593c-5.766-3.8-10.156-10.421-9.637-17.532
		c0.02-5.491,3.718-9.861,6.336-14.374c10.544-16.788,20.843-33.729,31.488-50.446c9.678-12.499,28.503-13.691,41.879-6.754
		c6.754-9.759,12.642-20.119,18.989-30.164c-6.397-2.048-12.591-5.786-15.963-11.766c-3.464-5.674-3.168-13.233,0.469-18.744
		c11.735-18.632,23.155-37.468,34.972-56.049c9.331-12,27.352-13.6,40.473-7.324c4.584-7.161,8.883-14.517,13.62-21.597
		c-2.455-1.65-5.409-2.211-8.038-3.494c-6.132-2.771-11.572-7.946-13.263-14.618c-1.253-4.655-0.275-9.718,2.282-13.763
		c9.983-16.146,20.048-32.252,30.052-48.388c3.107-5.155,6.153-10.727,11.511-13.895c10.605-6.774,24.449-6.173,35.492-0.723
		c5.175-7.589,9.729-15.586,14.7-23.318c-6.978-2.129-14.017-5.766-17.736-12.336c-3.341-5.389-3.382-12.52-0.02-17.909
		c10.686-17.359,21.515-34.636,32.252-51.974c1.64-2.7,3.27-5.47,5.582-7.671c5.552-5.379,13.355-7.987,20.985-8.221
		c6.754-0.407,13.151,2.027,19.345,4.391c1.192-1.599,2.292-3.27,3.331-4.981c-8.516-5.552-9.79-16.992-9.82-26.303
		c0.041-17.298-0.031-34.595,0.041-51.893C1192.831-1.876,1195.123-11.544,1202.682-16.739 M1213.663,95.39
		c6.591,1.976,12.856,5.491,16.992,11.124c3.341,5.46,4.156,12.652,0.937,18.357c-9.943,16.411-20.344,32.548-30.225,48.989
		c-3.005,3.963-4.89,8.822-8.751,12.112c-8.903,7.62-21.994,9.423-32.914,5.521c-2.475-0.764-4.788-2.078-7.375-2.404
		c-4.615,7.589-9.158,15.25-14.16,22.585c4.696,2.863,10.9,3.728,14.639,8.221c4.126,3.392,6.367,8.669,6.581,13.946
		c0.02,6.306-4.207,11.338-7.223,16.513c-6.683,10.819-13.518,21.556-20.058,32.446c-4.442,6.245-7.538,13.437-12.642,19.182
		c-9.769,9.657-25.651,10.931-37.794,5.287c-1.722-1.406-2.628,0.784-3.321,1.936c-4.054,6.479-7.987,13.019-12.01,19.478
		c7.355,2.414,15.26,5.358,19.641,12.194c3.953,5.613,4.248,13.498,0.52,19.315c-11.063,18.041-22.391,35.95-33.485,53.981
		c-5.715,10.085-18.174,14.435-29.267,13.447c-6.122-0.418-11.695-3.087-17.399-5.073c-6.122,10.116-12.713,20.007-18.52,30.266
		c7.121,2.088,14.435,5.623,18.326,12.265c3.504,5.481,3.586,12.856,0.112,18.377c-9.718,15.678-19.386,31.356-29.176,46.983
		c-3.138,4.818-5.664,10.167-10.065,14.017c-9.291,7.06-22.228,8.598-33.057,4.431c-1.63-0.53-3.168-1.497-4.9-1.457
		c-1.212,3.545-4.075,6.163-5.593,9.576c-4.187,6.336-7.997,12.927-12.092,19.325c6.958,2.333,14.231,5.501,18.225,12.041
		c3.881,5.735,3.902,13.64,0.02,19.386c-11.746,18.734-23.196,37.661-35.104,56.293c-9.739,12.489-28.687,13.355-42.021,6.459
		c-3.81,5.644-7.701,11.399-10.819,17.491c7.752,1.885,15.281,6.265,19.192,13.457c2.588,5.521,2.414,12.408-1.008,17.552
		c-11.318,18.286-22.758,36.521-34.045,54.827c-8.598,12.887-27.087,15.342-40.493,9.158c-0.621-0.061-1.854-0.173-2.475-0.234
		c-4.217,7.691-9.443,14.893-13.722,22.595c-1.202,2.078-3.107,3.83-3.657,6.245c6.672,2.037,13.518,5.124,17.532,11.134
		c4.065,5.521,4.574,13.396,0.968,19.274c-10.248,16.768-20.771,33.352-31.05,50.1c-3.015,5.185-6.418,10.544-11.898,13.427
		c-10.391,6.153-23.563,5.419-34.218,0.316l-0.927,0.143c-3.576,5.532-6.968,11.175-10.482,16.747
		c5.878,2.15,12.072,4.401,16.218,9.362c5.216,5.583,6.683,14.537,2.577,21.169c-11.756,19.09-23.563,38.13-35.543,57.088
		c-9.525,12.235-27.984,13.569-41.217,6.978c-5.491,8.058-10.442,16.503-15.566,24.805c179.19,0.071,358.38-0.071,537.569,0.071
		c-0.591-2.017-2.812-2.343-3.841-3.973c-6.835-6.326-12.285-14.506-13.895-23.797c-3.331-0.143-6.917,0.52-9.973-1.131
		c-1.854-1.09-3.8-2.832-3.718-5.144c-0.061-9.229,0-18.449-0.02-27.668c-0.051-2.526,0.316-5.124-0.57-7.538
		c0.632,0.56,1.284,1.141,1.956,1.732c-0.469,11.359-0.234,22.748-0.153,34.127c-0.092-10.462-0.122-20.924,0.02-31.376
		c-0.153-1.946,1.029-4.584-0.662-6.041c1.253-1.375,2.75-2.496,4.462-3.26c0.744,0.723,1.63,1.039,2.679,0.947
		c7.396,0.092,14.802,0.112,22.198-0.224c-7.386-0.693-14.812,0.081-22.187-0.499c-2.262-0.693,1.793-1.844,2.088-0.795
		c6.591,0.224,13.202,0.061,19.803,0.061c-0.306-1.61-1.609-2.414-2.536-3.535c-12.224-13.865-23.4-28.87-31.152-45.73
		c-9.127-19.223-13.355-40.809-11.613-62.039c1.783-24.938,10.421-48.714,20.119-71.543c15.464-36.052,33.841-71.146,43.825-109.286
		c5.542-21.403,9.046-43.631,7.895-65.757c-9.953-1.08-19.763-5.165-26.965-12.214c-4.808-4.829-8.333-11.399-8.017-18.357
		c-0.082-5.898,2.618-11.511,6.438-15.871c8.445-9.617,21.566-14.058,34.096-14.496c25.121-0.183,50.253,0.112,75.384-0.153
		c-0.652-6.52,0.407-13.518,4.931-18.551c6.183-7.976,16.758-10.564,26.425-10.401c-0.367-7.09-0.458-14.18-0.795-21.26
		c-3.739-0.173-7.447,0.642-11.145,0.183c-8.353-0.662-16.839-5.114-20.863-12.662c-3.24-5.47-2.567-12.072-2.802-18.163
		c2.221-3.647,0.682-8.527,0.845-12.622c-1.528,3.209,1.304,8.058-1.314,10.666c0.142-18.184-1.528-36.521-1.701-54.776
		c0.285-7.589,5.379-14.323,11.735-18.133c5.786-3.688,12.764-4.482,19.478-4.615c-0.611-13.05-0.907-26.13-1.528-39.19
		c-6.041,0.082-12.398,0.499-18.001-2.17c-4.869-2.374-9.576-5.419-12.204-10.421c-3.341-5.43-2.537-12.011-2.893-18.072
		c-0.723-16.299-1.335-32.609-1.936-48.908c-0.071-3.881-0.581-7.824,0.275-11.654c2.058-8.476,9.494-14.832,17.603-17.389
		c4.228-1.559,8.792-1.222,13.213-1.762c-0.204-8.975-0.703-17.939-0.866-26.914c-5.155-0.122-10.411,0.835-15.454-0.54
		c-8.476-1.864-16.289-8.068-18.622-16.625c-0.947-4.513-0.733-9.148-0.978-13.722c-0.448-13.61-1.192-27.21-1.559-40.83
		c0.061-3.158-1.151-6.54,0.397-9.494c0.632-2.496,0.265-5.124,0-7.64c-0.306,1.986-0.224,4.003-0.52,5.99
		c-0.805,2.282-1.355-1.895-0.56-2.007c-0.245-6.846,2.771-13.732,8.16-18.011c6.479-5.959,15.566-7.386,24.062-7.314
		c0.112-5.318,0.041-10.635,0.041-15.953c-19.386-0.214-38.782,0.102-58.168-0.153C1217.82,88.595,1215.67,91.977,1213.663,95.39
		 M1294.447,85.63c-0.061,5.063-0.02,10.116-0.031,15.168c5.175-0.265,10.554-0.489,15.474,1.457
		c8.068,2.659,15.067,9.749,16.004,18.408c1.029,21.78,1.742,43.58,2.649,65.36c0.245,5.725-1.874,11.572-5.949,15.627
		c-6.082,6.805-15.505,9.464-24.388,9.229c0.204,9.097,0.723,18.174,1.1,27.26c6.306-0.672,12.938-0.754,18.866,1.854
		c7.803,3.127,14.262,10.595,14.567,19.233c0.774,21.423,1.773,42.836,2.486,64.26c0.489,8.15-4.656,15.739-11.42,19.885
		c-6.031,3.993-13.416,4.666-20.445,4.727c-0.265,13.06,1.172,26.15,1.09,39.24c4.564,0.397,9.229-0.683,13.763,0.54
		c6.489,1.049,12.072,4.941,16.35,9.79c1.701,3.24,3.576,6.601,3.637,10.37c1.059,22.065,1.742,44.14,2.639,66.205
		c0.03,7.019-4.289,12.978-9.301,17.461c-6.214,4.177-13.63,6.112-21.087,5.847c0.061,7.09,0.367,14.18,0.754,21.27
		c3.209-0.173,6.693,1.029,9.769-0.092c9.525,0.621,19.274,6.275,22.534,15.586c1.854,4.594,1.029,9.637,1.569,14.445
		c6.672,0.071,13.365-0.275,20.038,0.326c9.973,1.172,19.895,4.931,27.342,11.817c4.992,4.737,8.72,11.247,8.751,18.276
		c0.214,7.111-3.392,13.844-8.445,18.663c-7.192,7.009-17.022,10.676-26.822,12.123c-0.448,20.476,2.414,40.962,7.416,60.806
		c9.433,37.407,27.026,71.931,42.419,107.086c8.985,20.629,17.226,41.858,20.853,64.178c3.311,21.25,1.905,43.468-5.796,63.669
		c-7.253,19.814-19.274,37.498-32.965,53.39c-2.414,2.883-5.481,5.389-7.314,8.639c7.773-0.112,15.545-0.082,23.318-0.041
		c3.881-0.153,8.578,2.475,8.516,6.795c-0.102,11.552,0.194,23.125-0.143,34.666c-1.834,5.593-8.669,5.572-13.498,5.267
		c-1.854,9.688-7.487,18.102-14.802,24.561c-1.049,1.11-2.934,1.559-3.148,3.311c68.121-0.316,136.251-0.051,204.372-0.143
		c114.411,0.082,228.831-0.163,343.242,0.122l0.428-1.283c-4.696-7.151-9.036-14.527-13.641-21.739
		c-10.88,4.859-24.174,5.695-34.544-0.846c-4.757-2.394-7.681-6.958-10.258-11.399c-10.544-16.972-21.118-33.923-31.62-50.905
		c-4.054-5.939-3.861-14.323,0.397-20.089c3.973-6.092,10.931-9.138,17.603-11.257c-3.168-5.949-6.866-11.766-10.717-17.298
		c-5.521,2.333-11.348,4.452-17.43,4.279c-6.896,0.326-13.498-2.129-19.437-5.389c-3.464-3.097-6.438-6.622-8.628-10.727
		c-10.737-17.165-21.383-34.381-32.048-51.597c-3.301-5.216-3.301-12.041-0.458-17.45c3.81-7.1,11.43-11.022,18.928-13.141
		c-5.583-10.024-12-19.661-18.143-29.339c-6.143,2.72-12.876,4.584-19.641,3.841c-8.445-0.601-17.145-4.35-22.065-11.46
		c-10.605-16.697-20.781-33.658-31.427-50.324c-2.404-4.309-5.766-8.374-6-13.539c-0.591-6.866,3.403-13.07,8.435-17.349
		c3.993-2.455,8.374-4.065,12.693-5.837c-3.963-5.532-6.795-11.949-11.226-17.043c-10.432,5.409-23.532,5.98-33.933,0.194
		c-6.051-3.178-9.78-9.138-13.029-14.914c-10.065-16.106-20.089-32.232-30.072-48.378c-3.871-5.97-3.494-14.221,0.744-19.906
		c4.004-5.888,10.747-8.995,17.369-10.971c0.061-1.497-1.212-2.516-1.823-3.739c-5.226-8.384-10.584-16.697-15.556-25.223
		c-2.119-0.367-3.942,1.202-5.919,1.65c-12.438,4.36-28.299,1.416-36.327-9.617c-10.442-16.483-20.557-33.179-31.009-49.631
		c-2.445-4.645-6.397-8.893-6.428-14.445c-0.713-7.742,4.472-14.751,10.869-18.551c3.107-2.18,7.09-2.659,10.208-4.737
		c-4.533-6.275-7.976-13.294-12.652-19.416c-5.735,2.353-11.573,4.808-17.797,5.358c-8.476,0.642-17.359-1.63-23.909-7.182
		c-4.044-3.301-6.031-8.282-9.016-12.428c-9.953-16.167-20.048-32.232-29.97-48.419c-3.993-6.622-2.598-15.566,2.649-21.097
		c4.615-5.45,11.593-7.793,18.164-9.912c-0.02-1.559-1.314-2.649-1.956-3.942c-6.021-9.505-11.776-19.182-17.909-28.615
		c-11.654,5.837-26.211,5.328-36.999-2.2c-1.172-1.477-2.557-2.74-3.993-3.912c-11.848-19.386-24.092-38.802-36.113-58.148
		c-0.682-1.467-1.233-3.015-1.732-4.543c1.671-2.374,1.548-6.173,0.102-8.639c1.518-4.594,4.656-8.364,8.241-11.511
		c3.891-2.414,8.19-3.963,12.428-5.654c-4.91-7.62-9.576-15.403-14.343-23.104c-5.379,1.834-10.676,4.187-16.432,4.492
		c-9.678,0.611-19.997-2.669-26.456-10.146c-10.808-17.338-21.586-34.687-32.364-52.046c-2.944-4.635-6.408-9.525-5.919-15.321
		c0.112-6.275,4.238-11.338,8.608-15.382c4.136-2.343,8.466-4.268,13.029-5.654c0.061-0.234,0.183-0.703,0.245-0.937
		c-2.496-3.27-4.564-6.846-7.029-10.126C1327.198,85.63,1310.817,85.62,1294.447,85.63 M1169.055,103.509
		c-11.552,18.561-23.104,37.203-34.656,55.713c-0.988,2.526-0.825,5.603,0.937,7.752c2.282,3.168,6.214,4.289,9.729,5.501
		c4.503-4.859,6.591-11.939,11.623-16.493c3.983-3.871,12.989-1.355,12.601,4.727c-0.764,1.681-1.192-1.447-1.294-1.986
		c-0.387,1.548-0.703,3.29,0.438,4.625c-2.852,4.9-6.234,9.566-8.761,14.588c5.348,1.915,11.155,4.706,16.86,2.333
		c5.562-1.375,7.498-7.111,10.503-11.287c5.745-9.484,11.735-18.815,17.552-28.269c3.515-5.603,6.754-11.44,10.696-16.727
		c2.577-3.097,3.739-7.406,2.129-11.43c-2.119-2.099-4.411-4.065-7.324-4.91c-1.528-0.397-3.881-2.149-4.849-0.031
		c-2.455,3.678-4.604,7.538-7.365,10.992c-2.139,2.822-3.769,7.62-8.18,6.907c-2.883-0.744-5.725-1.844-8.272-3.341
		c-2.323-1.691-1.1-4.554,0.275-6.387c3.301-4.808,6.387-9.78,9.861-14.476C1185.028,96.795,1173.965,96.133,1169.055,103.509
		 M1373.08,101.736c0.061,1.925,1.885,2.954,2.689,4.564c4.228,7.039,9.423,13.498,13.416,20.659
		c0.744,4.309-4.513,4.971-7.375,6.336c-3.097,1.599-6.866-0.102-8.323-3.076c-4.818-7.62-10.024-14.985-14.965-22.513
		c-2.7-0.204-5.256,1.701-7.844,2.465c-4.727,1.508-8.455,7.355-5.501,12c10.594,17.216,21.332,34.34,31.967,51.526
		c2.088,4.065,5.246,7.987,10.034,8.791c5.409,1.722,10.635-1.121,15.688-2.73c-2.842-5.307-6.703-10.044-9.138-15.576
		c-1.396-3.076,0.387-6.937,3.83-7.498c3.209-1.925,6.652-0.01,9.372,1.803c3.087,5.206,6.856,10.116,9.504,15.535
		c5.959-0.112,14.384-5.307,11.685-12.418c-9.831-16.503-20.272-32.7-30.317-49.091c-2.832-4.299-4.961-9.586-10.034-11.654
		C1382.982,98.812,1377.715,99.903,1373.08,101.736 M1294.528,113.706c-0.275,7.813,0,15.637-0.122,23.461
		c0.102,2.455-2.455,4.492-4.788,4.37c-3.494-0.122-7.314,0.733-10.35-1.457l0.734-0.326c0.255-8.262-0.245-16.605-0.071-24.897
		c-0.02,6.051-0.01,12.102,0,18.153c-0.183,2.037-0.092,4.34-1.579,5.939c0.397-8.15,0.102-16.309,0.183-24.469
		c-4.92,0.458-10.656-0.051-14.262,4.014c-5.114,4.126-2.343,11.257-2.883,16.829c-1.09,0.937-1.345,2.353-1.11,3.718
		c0.306,3.362,0.285,6.744,0.306,10.126c0.601-3.779-1.447-8.873,1.222-11.786c0.071,17.094,1.294,34.391,1.773,51.567
		c-0.153,3.749,2.313,7.182,5.623,8.771c4.217,2.282,9.138,1.049,13.691,1.059c0.265-6.285-1.324-12.673-0.194-18.887
		c0.846-4.951,7.202-6.662,11.094-4.248c2.455,1.497,3.127,4.462,3.27,7.151c0.173,5.022,0.397,10.055,0.499,15.097
		c6.652,0.866,15.647-2.19,16.187-9.932c-0.55-21.372-1.711-42.724-2.404-64.087c0.255-4.869-3.83-8.995-8.374-10.004
		C1300.202,113.074,1297.319,113.512,1294.528,113.706 M1098.52,217.053c-3.464,1.844-5.022,5.664-6.968,8.842
		c-10.248,16.136-20.211,32.486-30.347,48.694c-2.384,2.863-2.374,7.467,0.275,10.177c2.852,3.321,7.436,3.983,11.267,5.684
		c1.986-2.924,3.566-6.122,5.766-8.893c2.058-2.506,5.44-4.625,8.781-3.423c2.302,0.733,5.409,1.732,5.47,4.676
		c0.448,5.124-4.319,8.486-5.623,13.07c3.912,1.141,7.844,3.117,12.051,2.272c4.34-0.489,8.394-2.995,10.37-6.958
		c11.094-18.102,22.432-36.032,33.556-54.113c2.037-3.769-0.234-7.915-3.097-10.452c-2.781-1.273-5.705-2.149-8.445-3.484
		c-4.656,6.112-8.048,13.121-12.418,19.447c-2.15,3.922-4.992,8.231-9.831,8.853c-2.822-0.642-6.55-1.233-7.61-4.38
		c-0.632-2.985,0.978-5.756,2.424-8.231c4.554-6.662,8.404-13.783,12.999-20.425C1111.742,214.996,1104.296,213.681,1098.52,217.053
		 M1445.317,219.712c3.229,6.133,7.284,11.817,10.819,17.797c1.864,3.382,5.053,6.54,4.533,10.717
		c-0.112,2.995-3.453,4.003-5.817,4.696c-3.922,1.09-7.233-1.956-9.484-4.747c-4.268-7.742-9.576-14.965-13.753-22.727
		c-5.022,0.55-11.297,3.015-12.958,8.435c-1.009,3.81,1.813,6.978,3.698,9.963c9.535,15.596,19.335,31.04,28.89,46.626
		c1.833,2.781,3.26,6.184,6.448,7.722c5.542,3.127,12.52,2.027,17.868-0.998c-2.547-4.442-8.038-9.454-5.053-14.904
		c2.883-2.323,7.325-3.871,10.625-1.365c4.431,2.516,5.369,8.048,8.934,11.359c3.891-1.976,8.832-2.577,11.44-6.489
		c2.119-2.679,1.823-6.51-0.183-9.158c-11.46-18.255-22.737-36.663-34.127-54.928c-2.781-3.331-7.192-4.941-11.45-4.768
		C1452.05,216.87,1448.77,218.724,1445.317,219.712 M1299.652,250.976c0.581,8.873,0.764,17.766,1.059,26.649
		c0.285,3.402-1.314,7.528-4.941,8.394c-2.19,0.143-4.727,0.723-6.571-0.795c-2.231-1.752-3.158-4.706-3.178-7.447
		c-0.214-8.69-0.805-17.359-1.019-26.048c-3.229,0.163-6.56-0.061-9.616,1.1c-4.421,1.406-8.109,5.786-7.569,10.584
		c0.958,21.362,1.518,42.745,2.659,64.097c0.968,8.089,10.676,9.861,17.338,8.537c0.326-5.318-1.986-11.797,2.414-16.004
		c3.158-1.874,8.445-2.129,10.482,1.548c2.475,4.065,1.324,9.077,1.813,13.589c5.348,0.02,11.654,0.071,15.423-4.421
		c2.934-2.598,2.71-6.764,2.486-10.33c-0.856-19.335-1.579-38.68-2.302-58.025c0.051-3.382-0.784-7.121-3.861-9.026
		C1310.298,249.713,1304.552,250.671,1299.652,250.976 M1024.572,337.759c-11.338,18.174-22.625,36.388-33.933,54.572
		c-1.874,2.618-1.813,6.357,0.143,8.914c1.956,2.791,5.307,3.963,8.414,4.992c2.914-4.228,5.012-9.81,10.34-11.542
		c3.759-0.53,9.749,1.497,9.005,6.245c-0.081,4.207-4.136,6.897-4.981,10.788c5.511,1.518,10.971,5.012,16.9,3.28
		c4.452-0.723,7.773-4.065,9.708-7.956c10.707-17.43,21.586-34.728,32.354-52.127c1.589-2.384,1.599-5.481,0.102-7.905
		c-2.903-4.533-8.567-5.399-13.182-7.284c-6.204,9.943-12.551,19.824-18.479,29.93c-2.037,2.526-4.645,5.287-8.119,5.389
		c-2.72-0.214-5.297-1.436-7.273-3.28c-1.447-5.348,2.903-9.443,5.175-13.752c3.942-6.469,8.068-12.815,11.949-19.325
		c0.611-1.406,2.496-2.475,2.282-4.126C1038.742,330.853,1028.932,331.189,1024.572,337.759 M1523.451,346.714
		c4.054,6.683,8.292,13.253,12.326,19.956c1.426,2.374,2.109,6.163-0.306,8.139c-2.557,1.355-5.705,2.964-8.537,1.467
		c-3.657-1.559-5.888-5.104-7.65-8.476c-3.25-5.297-6.611-10.503-9.78-15.831c-3.708,1.202-7.538,2.302-10.91,4.279
		c-3.515,2.18-5.42,7.09-3.097,10.798c11.124,18.082,22.442,36.082,33.627,54.113c2.017,4.146,6.693,6.336,11.134,6.632
		c5.328,0.438,9.993-2.608,14.985-3.942c-2.832-6.55-7.803-12.235-10.92-18.744c-0.856-1.681-0.53-3.586-0.275-5.358
		c0.652-0.672,1.345-1.324,2.078-1.946c2.047-0.479,4.095-1.793,6.285-1.294c5.277,1.07,7.447,6.56,10.116,10.595
		c2.516,3.708,4.635,7.65,7.161,11.348c4.36-1.294,8.965-4.329,9.362-9.291c-0.346-3.535-2.74-6.387-4.625-9.229
		c-10.024-16.625-20.496-32.996-30.663-49.539C1539.506,343.698,1529.971,343.291,1523.451,346.714 M1305.204,400.44
		c0.081,8.007,0.825,16.004,0.53,24.001c-0.509,6.377-9.678,7.987-13.192,3.219c-0.744-2.058-1.447-4.136-1.365-6.346
		c-0.153-6.673-0.53-13.335-0.774-20.007c-5.073-0.02-10.839,0.234-14.476,4.299c-3.209,3.199-2.455,7.885-2.394,11.97
		c-1.874,2.119-0.845,5.216-0.907,7.773c0.296,1.915-0.825,4.228,0.316,5.919c0.947-3.739-1.426-8.73,1.07-11.705
		c-0.224,17.573,1.396,35.288,1.63,52.932c-1.579,1.436-1.223,3.728-0.937,5.623c0.611-0.733,0.336-4.279,1.528-3.178
		c-1.161,3.932,1.793,7.864,5.256,9.505c4.146,2.282,9.026,1.151,13.528,1.121c0.163-8.19-1.212-16.411-0.448-24.571
		c0.764-5.053,6.296-6.224,10.543-5.236c2.323,2.037,3.922,4.818,3.953,7.976c0.194,7.009,0.448,14.017,0.744,21.016
		c3.79-0.132,7.905-0.143,11.216-2.292c3.138-1.874,5.399-5.419,5.002-9.168c-0.774-21.383-1.62-42.755-2.496-64.127
		c-0.234-3.433-2.863-6.234-5.807-7.701C1313.822,399.462,1309.36,400.461,1305.204,400.44 M943.066,462.989
		c-9.627,15.79-19.59,31.376-29.216,47.166c-1.915,3.81-6.072,7.253-4.645,11.97c1.701,5.684,8.129,6.795,12.846,8.893
		c2.598-3.647,4.696-7.701,7.742-11.043c4.065-3.036,12.235-1.63,12.622,4.187c-0.56,4.421-3.667,7.885-5.97,11.511
		c6.163,4.431,16.513,4.564,21.383-2.027c10.992-17.573,21.882-35.206,32.843-52.799c1.579-2.73,3.902-5.919,2.211-9.168
		c-1.956-4.981-7.589-6.214-12.051-7.946c-4.849,7.63-9.718,15.27-14.252,23.094c-2.078,2.455-4.696,4.981-8.109,5.114
		c-2.587-0.835-6.469-1.161-7.06-4.391c-1.131-3.942,1.976-7.324,3.841-10.493c3.525-6.367,8.027-12.224,11.287-18.703
		c-3.677-1.019-7.182-3.005-11.094-2.781C950.441,455.654,945.195,458.292,943.066,462.989 M1595.718,460.839
		c4.961,7.243,9.342,14.863,14.048,22.279c1.691,2.587,2.465,6.998-0.642,8.853c-2.394,1.09-5.216,2.577-7.783,1.253
		c-4.411-1.783-6.54-6.326-8.802-10.156c-4.054-5.664-6.927-12.173-11.359-17.532c-3.912,1.936-8.924,2.7-11.185,6.907
		c-2.384,3.637-0.173,7.803,2.139,10.819c9.046,14.853,18.377,29.553,27.515,44.344c2.944,3.953,4.533,9.321,9.331,11.532
		c5.419,2.74,11.878,1.467,16.982-1.375c-1.732-2.842-3.708-5.542-5.165-8.527c-1.11-2.272-1.253-5.511,0.988-7.151
		c2.598-1.375,5.766-2.71,8.659-1.284c4.829,2.312,6.622,7.773,9.545,11.898c4.778-1.589,10.758-2.883,12.927-8.038
		c1.334-2.689,0.204-5.654-1.365-7.956c-10.544-16.748-20.853-33.648-31.427-50.365c-1.406-2.557-2.873-5.328-5.531-6.744
		C1608.818,456.031,1601.097,457.263,1595.718,460.839 M1311.663,531.853c0.112,5.644,0.428,11.277,0.784,16.921
		c5.868-0.031,11.735-0.041,17.613,0c-0.092-4.849,1.019-11.094-3.616-14.282C1322.502,530.63,1316.634,531.537,1311.663,531.853
		 M1281.693,537.721c-2.618,3.076-1.905,7.324-1.661,11.033c5.776,0.02,11.573-0.051,17.359,0.041
		c0.163-5.348-0.367-10.676-0.377-16.014C1291.574,532.474,1285.217,532.994,1281.693,537.721 M867.702,585.233
		c-11.247,18.245-22.605,36.398-33.902,54.613c-1.905,2.771-1.375,6.713,0.886,9.128c2.486,3.097,6.632,3.688,10.014,5.379
		c3.331-4.126,5.552-9.016,8.608-13.345c2.883-4.207,4.992-10.136,10.584-11.277c3.036-0.479,5.786,1.273,7.987,3.117
		c1.722,3.301-0.408,6.774-2.19,9.535c-3.168,5.898-7.701,11.185-10.289,17.308c3.484,1.008,6.795,2.913,10.544,2.791
		c4.92,0.255,9.963-2.17,12.469-6.469c11.206-18.133,22.534-36.195,33.709-54.338c1.701-2.71,1.09-6.367-0.958-8.7
		c-2.659-3.219-6.988-4.055-10.686-5.511c-3.912,6.255-7.793,12.51-11.695,18.765c-2.221,4.197-5.389,9.178-10.666,9.362
		c-3.076-0.499-7.121-1.752-7.365-5.47c0.143-4.757,3.749-8.211,5.898-12.143c3.127-5.328,6.703-10.381,9.708-15.769
		c-3.382-1.11-6.662-2.852-10.289-2.852C875.352,579.11,870.188,581.026,867.702,585.233 M1672.008,584.092
		c4.533,7.314,9.016,14.68,13.61,21.973c1.467,2.251,2.598,5.175,1.498,7.834c-1.182,2.068-3.698,2.689-5.786,3.362
		c-3.545,0.754-6.846-1.63-8.71-4.462c-4.951-7.64-9.596-15.474-14.486-23.145c-2.75-0.071-5.399,1.65-7.905,2.689
		c-4.187,2.007-6.53,7.681-3.667,11.715c10.452,16.768,20.843,33.576,31.325,50.334c1.885,3.097,3.545,6.795,7.121,8.292
		c5.807,3.189,12.805,1.375,18.255-1.661c-3.26-4.768-6.061-9.82-9.301-14.598c-1.823-3.494-5.369-7.202-3.576-11.43
		c0.479-2.068,2.954-2.262,4.584-3.005c4.278-1.783,8.557,1.681,10.615,5.236c3.759,6.255,7.915,12.336,11.481,18.693
		c4.89-1.049,10.971-3.107,12.438-8.537c1.039-2.761-0.713-5.44-2.119-7.701c-10.971-17.359-21.586-34.952-32.619-52.29
		c-1.925-3.189-5.277-5.44-8.954-5.98C1681.004,580.221,1676.389,582.482,1672.008,584.092 M798.308,695.966
		c-11.287,18.011-22.381,36.123-33.678,54.124c-1.569,2.323-2.689,5.369-1.192,8.048c2.262,4.971,8.119,6.214,12.815,7.803
		c2.832-3.973,4.554-9.179,9.046-11.644c2.995-1.762,6.601-0.458,9.341,1.161c2.048,1.742,1.823,4.869,0.784,7.111
		c-1.61,2.822-2.995,5.796-5.155,8.262c6.998,4.849,18.744,4.197,22.799-4.228c10.207-16.513,20.486-32.975,30.714-49.478
		c2.323-2.934,4.635-6.917,2.873-10.696c-2.19-4.564-7.386-5.796-11.644-7.661c-5.939,7.926-10.238,16.992-16.146,24.958
		c-3.26,4.146-9.922,3.912-13.223,0.061c-2.129-3.953,1.233-7.844,3.046-11.185c4.197-6,7.447-12.591,11.817-18.459
		C814.159,689.599,803.35,688.947,798.308,695.966 M1741.871,695.406c4.574,7.905,9.667,15.525,14.354,23.379
		c1.304,2.343,1.956,5.807-0.336,7.793c-2.302,1.457-5.175,2.689-7.915,1.925c-3.199-1.049-5.348-3.82-7.09-6.53
		c-4.126-7.274-8.914-14.14-13.141-21.332c-4.533,1.691-10.299,2.985-12.184,8.068c-1.946,4.584,2.19,8.201,4.116,11.929
		c9.301,14.914,18.469,29.95,27.892,44.803c1.986,3.576,4.095,7.579,8.201,9.097c5.369,2.608,11.359,0.754,16.442-1.589
		c-1.813-2.883-3.851-5.644-5.307-8.71c-1.12-2.302-1.11-5.45,1.059-7.131c2.496-1.07,5.348-2.863,8.089-1.416
		c5.104,2.078,7.111,7.681,9.932,11.98c2.832-0.52,5.491-1.722,8.15-2.832c4.044-1.895,7.151-7.192,4.452-11.359
		c-10.156-16.798-20.69-33.373-30.999-50.079c-2.323-3.525-4.075-7.936-8.323-9.515
		C1753.576,691.107,1747.311,693.144,1741.871,695.406 M727.325,815.541c-4.472,1.508-6.469,6.031-8.822,9.708
		c-9.066,14.863-18.469,29.502-27.495,44.395c-2.241,3.515-5.715,7.304-4.044,11.807c1.956,4.941,7.498,6.316,12,7.956
		c2.873-4.686,5.603-9.454,8.649-14.028c2.414-3.637,4.228-8.18,8.516-10.024c2.751-1.538,5.715,0.183,8.394,1.008
		c2.74,2.526,2.068,6.703,0.102,9.494c-3.983,6.041-7.559,12.326-11.603,18.326c5.328,3.219,12.448,4.829,18.255,1.742
		c5.073-2.475,6.53-8.404,9.79-12.591c9.698-15.749,19.62-31.376,29.237-47.166c3.219-7.62-5.959-12.836-12.224-13.264
		c-2.557,4.085-5.134,8.139-7.528,12.316c-3.525,4.564-5.481,10.269-9.871,14.129c-3.372,1.997-7.549,1.375-10.523-0.978
		c-2.486-2.17-1.447-5.98,0.092-8.384c4.605-7.549,9.311-15.046,13.966-22.554C739.019,814.961,732.877,813.015,727.325,815.541
		 M1818.192,819.504c4.187,6.418,8.119,12.999,12.214,19.488c1.487,2.486,3.504,5.012,3.148,8.119
		c0.234,3.647-4.003,4.564-6.713,5.369c-4.625,0.336-7.752-3.83-9.973-7.304c-4.115-6.958-8.414-13.803-12.744-20.629
		c-4.156,1.182-8.924,2.384-11.42,6.245c-1.487,2.048-1.803,4.951-0.621,7.233c11.063,18.031,22.33,35.95,33.434,53.971
		c1.61,3.066,4.228,5.644,7.63,6.632c5.501,2.119,11.267-0.112,16.33-2.343c-3.29-4.533-5.817-9.576-8.944-14.231
		c-1.936-3.474-5.297-6.886-4.36-11.185c0.947-3.117,4.849-4.014,7.722-4.258c5.654,0.377,8.038,6.336,10.778,10.432
		c3.189,4.635,5.562,9.943,9.229,14.19c3.056-1.487,6.581-2.16,9.168-4.513c2.465-2.211,3.698-6.031,2.129-9.097
		c-10.747-17.583-21.81-35.064-32.629-52.626c-1.793-3.199-4.146-6.418-7.722-7.701
		C1829.367,815.032,1823.052,816.59,1818.192,819.504 M651.034,932.855c-11.002,17.756-22.075,35.481-33.098,53.248
		c-1.925,2.71-1.528,6.56,0.489,9.117c2.934,3.321,7.426,4.207,11.338,5.858c3.484-3.922,4.869-9.912,10.177-12.01
		c3.056-1.874,6.204,0.611,9.138,1.477c3.168,5.756-2.333,11.033-5.022,15.719c5.684,2.761,12.652,3.953,18.377,0.642
		c2.801-2.099,4.594-5.165,6.224-8.18c10.381-16.34,20.456-32.884,30.734-49.285c1.63-2.333,2.486-5.45,1.049-8.089
		c-2.16-4.655-7.599-5.786-11.919-7.487c-4.788,7.793-9.688,15.535-14.547,23.298c-1.925,3.362-6.163,5.868-10.014,4.36
		c-2.16-0.662-4.757-1.762-5.032-4.34c-0.57-3.983,2.353-6.978,4.065-10.218c4.004-5.99,7.63-12.224,11.409-18.347
		c-3.688-1.172-7.284-3.117-11.267-2.832C658.236,925.744,653.163,928.291,651.034,932.855 M1888.065,930.512
		c4.574,7.976,9.759,15.617,14.394,23.563c1.915,3.015,1.324,7.885-2.649,8.771c-4.289,2.567-9.311-0.285-11.613-4.126
		c-4.737-7.61-9.515-15.199-14.16-22.86c-4.554,1.263-9.973,2.842-12.163,7.467c-1.294,2.577-0.571,5.644,1.08,7.895
		c11.043,17.756,22.116,35.492,33.118,53.268c2.241,4.248,7.233,6.275,11.858,6.316c3.586,0.153,6.897-1.447,10.238-2.567
		c-1.925-4.727-7.447-8.985-5.358-14.578c2.638-3.382,7.946-4.411,11.634-2.007c3.606,3.036,5.165,7.589,7.987,11.277
		c4.523-1.824,10.319-2.822,12.53-7.783c1.834-3.087,0.122-6.55-1.701-9.158c-10.829-17.318-21.556-34.697-32.374-52.025
		c-1.864-3.515-5.633-5.674-9.504-6.153C1896.745,926.814,1892.293,928.943,1888.065,930.512 M601.189,995.668
		c1.62,15.464,2.476,31.04,2.139,46.595l1.396-0.316c5.287-8.832,10.829-17.481,16.269-26.221c0.632-1.243,1.905-2.282,1.824-3.759
		c-7.182-2.119-14.578-5.491-18.663-12.092C602.961,998.541,603.389,996.004,601.189,995.668 M1951.255,1008.697
		c-3.576,2.659-8.027,3.545-11.949,5.46c4.89,7.63,9.403,15.576,14.598,22.962c0.316-10.289,0.082-20.639,1.233-30.887
		C1953.507,1006.487,1952.529,1007.862,1951.255,1008.697 M813.741,1166.209c0.183,0.285,0.55,0.835,0.734,1.11
		c3.942,1.172,7.294,3.545,10.768,5.654c6.815,5.98,11.583,15.332,9.087,24.53c-1.182,5.939-5.358,10.421-9.423,14.578
		c10.075-0.621,20.649,1.426,28.85,7.599c6.856,4.859,11.766,13.07,11.083,21.658c-0.448,6.347-3.79,12.296-8.537,16.452
		c-1.233,1.172-3.24,1.722-3.606,3.616c13.773-5.776,30.704-4.075,42.612,5.063c4.217,3.474,7.304,8.007,9.423,13.009
		c-1.671,3.301-0.937,7.08-0.672,10.605c0.193-2.343,0.122-4.696,0.448-7.009c0.591-2.19,2.099,1.569,0.937,1.997
		c0.092,5.542-1.874,10.88-5.195,15.291c10.595-3.464,22.452-4.116,32.945,0.143c4.492,1.915,9.036,4.207,12.265,7.997
		c6.153,5.837,8.893,15.026,6.459,23.236c13.213-6.387,29.685-6.112,42.276,1.661c2.19-1.314,4.513-2.384,6.968-3.117l-0.387-1.1
		c-9.107-2.465-17.42-10.707-17.216-20.598c0.194-8.272,6.397-14.985,13.539-18.388c1.406-0.825,3.413-0.642,4.35-2.18
		c-9.291-2.771-18.235-10.839-17.878-21.189c0.418-9.484,8.465-17.094,17.226-19.539l0.326-1.07
		c-6.998-2.119-13.528-7.009-16.299-13.926c-1.895-4.503-1.579-9.718,0.448-14.109c3.178-6.163,9.128-10.819,15.82-12.581
		l-0.245-1.11c-9.28-2.557-17.776-11.094-17.267-21.209c0.336-7.141,5.328-12.907,10.992-16.727
		c-2.109-0.682-4.33-0.234-6.469-0.306C929.985,1166.219,871.858,1166.301,813.741,1166.209 M1028.891,1166.331
		c6.316,3.769,11.807,10.258,11.552,18.001c0.092,10.024-8.659,17.705-17.664,20.364l0.56,0.856
		c5.786,1.885,11.033,5.583,14.353,10.737c3.464,5.348,3.729,12.632,0.54,18.184c-3.229,5.796-9.036,9.891-15.342,11.746l0.346,1.07
		c5.419,1.345,9.973,4.92,13.6,9.067c3.555,5.104,4.869,11.99,2.323,17.817c-2.883,7.009-9.617,11.552-16.554,13.946
		c6.122,2.761,12.927,6.336,15.902,12.856c2.088,3.881,2.445,8.567,1.345,12.815c-2.2,7.661-9.077,13.396-16.635,15.403l-0.295,1.11
		c6.795,1.905,12.907,6.53,15.953,12.978c2.027,4.146,1.966,9.046,0.652,13.406c9.505,3.311,18.561,10.544,20.802,20.771
		c9.973-1.609,20.516-0.642,29.552,4.136c1.569-0.428,2.71-1.844,4.299-2.343c-0.031-1.915-0.031-3.81,0.01-5.694
		c-5.929-3.26-11.481-7.732-14.445-13.956c-3.637-7.049-2.934-15.892,1.436-22.452c4.462-6.703,11.562-11.674,19.406-13.518
		l0.367-1.09c-8.486-2.302-16.452-7.63-20.741-15.433c-3.423-6.092-3.769-13.793-0.795-20.119
		c3.993-8.639,12.428-14.71,21.545-16.951l-0.336-1.029c-9.087-2.526-17.736-8.578-21.464-17.471
		c-2.639-6.092-2.292-13.335,0.856-19.172c4.146-7.885,12.011-13.376,20.527-15.627l0.54-0.927
		c-8.74-2.465-17.063-7.926-21.23-16.197c-3.413-6.489-3.26-14.618,0.346-20.995c2.771-5.379,7.579-9.28,12.714-12.286
		C1071.575,1166.189,1050.233,1166.199,1028.891,1166.331 M1134.765,1166.27c1.375,1.589,3.413,2.333,5.104,3.576
		c2.995,2.659,5.43,5.847,7.711,9.128c16.106-14.659,44.996-13.345,58.616,4.095c2.557-6.184,6.092-11.99,10.778-16.778
		C1189.571,1166.209,1162.168,1166.25,1134.765,1166.27 M1392.66,1166.331c4.126,2.659,8.15,5.705,10.829,9.912
		c4.37,6.347,5.206,14.995,1.854,21.984c-3.301,7.426-10.319,12.52-17.644,15.576c-10.248,3.8-21.963,3.953-32.161-0.081
		c0.387,2.822,3.107,5.369,3.545,8.496c-1.273,1.304-1.08,3.178-1.08,4.87c0.092,1.966-0.418,4.289,1.07,5.919
		c-3.647,12.805-16.666,20.496-29.277,22.024c-3.963,5.307-6.683,11.511-10.554,16.921c-3.066,3.942-5.949,8.027-9.138,11.848
		c9.973-1.915,20.659-0.744,29.644,4.126c6.836,3.718,12.846,9.769,14.7,17.532c1.681,5.766,0.031,11.776-2.424,17.053
		c13.202-5.318,28.778-3.413,40.646,4.319c4.91,4.37,9.647,9.586,10.768,16.33c1.436,5.45-0.581,10.88-2.506,15.882
		c7.905-3.189,16.758-3.718,25.07-2.007c-3.525-5.96-5.083-13.253-2.873-19.957c3.27-9.963,12.612-16.737,22.391-19.518
		l-0.367-0.825c-9.525-2.975-18.683-9.505-21.963-19.284c-2.801-8.404-0.031-18.021,6.347-24.042
		c4.228-4.93,10.594-7.131,16.248-9.759c-7.987-2.74-15.861-7.1-20.262-14.588c-5.022-7.844-4.34-18.642,1.253-25.977
		c4.054-5.114,9.515-9.118,15.688-11.277c1.222-0.55,2.73-0.683,3.667-1.762c-11.929-2.863-23.715-12.693-23.97-25.733
		c-0.53-6.876,3.056-13.07,7.396-18.062C1417.251,1166.301,1404.956,1166.138,1392.66,1166.331 M1487.307,1166.118
		c0.163,0.499,0.489,1.508,0.652,2.007c6,5.043,7.895,14.323,5.684,21.739c-3.138,10.472-12.968,17.583-23.196,20.262
		c5.032,2.445,10.707,4.044,14.781,8.139c6.581,5.481,10.778,14.445,8.914,23.043c-1.915,9.423-9.617,16.666-18.204,20.333
		c-1.579,0.794-3.647,0.764-4.727,2.353c9.729,3.199,19.274,9.841,22.381,20.068c3.107,9.413-1.447,19.865-9.016,25.753
		c-3.79,3.83-9.392,4.951-13.763,7.61c7.223,2.18,14.201,6.092,18.754,12.265c4.35,5.623,6.245,13.284,4.146,20.191
		c-3.026,10.105-12.306,17.471-22.299,20.018l-0.377,1.11c8.18,2.231,15.871,7.243,20.221,14.659
		c8.139-0.652,16.422,0.509,23.889,3.881c-3.973-6.163-5.45-14.089-2.628-21.016c3.331-8.802,11.532-14.578,20.007-17.868
		c-4.482-11.471,5.47-23.603,16.503-25.946l-0.173-1.11c-6.224-1.966-12.011-6-15.27-11.715c-3.352-6.163-2.598-13.875,1.385-19.559
		c3.739-4.35,8.537-8.099,14.231-9.382l-0.52-0.917c-6.061-2.088-11.766-5.898-14.924-11.603c-3.158-5.42-3.097-12.54,0.214-17.878
		c3.311-5.46,8.812-9.382,14.883-11.246l0.244-0.917c-8.506-2.302-16.472-9.189-17.552-18.296
		c-1.294-10.533,7.528-19.712,17.155-22.33l0.458-1.019c-8.302-2.129-16.024-8.822-17.522-17.532
		c-0.947-5.369,1.039-10.747,4.431-14.873C1519.814,1166.036,1503.556,1166.484,1487.307,1166.118 M1583.932,1166.23
		c2.659,4.116,5.053,8.812,4.35,13.905c-0.968,9.27-9.005,16.269-17.593,18.693l0.346,0.774c8.516,2.903,16.676,9.892,17.318,19.406
		c0.591,7.64-4.482,14.068-10.248,18.377c-2.363,1.385-5.613,1.823-7.385,3.8c5.684,1.854,11.053,5.246,14.425,10.289
		c3.29,4.737,4.187,11.083,2.037,16.493c-2.72,7.019-9.311,11.705-16.177,14.18l-0.285,0.754
		c10.146,2.7,19.641,12.622,17.277,23.736c-0.795,5.634-4.91,9.657-8.903,13.284c-2.71,1.263-5.267,2.863-8.18,3.627l0.265,1.161
		c6.214,1.65,11.46,5.949,14.944,11.277c2.282-0.825,4.126-2.659,6.448-3.504c11.97-5.542,26.211-4.971,38.089,0.54
		c-3.535-10.9,2.995-22.503,12.408-28.014c11.664-7.202,26.741-7.997,39.373-2.924c-2.934-4.421-5.521-9.433-5.226-14.904
		c-0.244-9.168,5.939-17.124,13.477-21.678c11.593-7.131,26.507-7.844,39.078-2.883c-0.672-1.762-2.414-2.313-3.627-3.474
		c-5.226-4.757-8.853-11.664-8.445-18.856c0.194-7.976,5.185-15.077,11.511-19.579c8.038-5.654,18.204-8.16,27.963-7.09
		c-0.081-0.336-0.245-0.998-0.326-1.334c-7.325-5.756-11.175-15.902-8.313-24.938c2.975-9.515,11.634-16.33,20.914-19.192
		c1.548-0.662,3.708-0.407,4.767-1.946C1710.79,1166.281,1647.356,1166.26,1583.932,1166.23 M1938.542,1166.342
		c8.231,4.971,14.781,14.048,13.803,24.052c-1.08,12.337-12.031,21.352-23.379,24.378l-0.346,0.978
		c10.676,2.435,20.883,10.513,23.308,21.566c3.219,14.588-9.596,28.035-23.216,30.663l0.173,1.09
		c6.907,1.711,12.968,5.797,17.909,10.849c1.803,2.944,3.861,5.827,4.737,9.24c2.048,6.469,0.458,13.6-3.138,19.223
		c-0.856,0.01-1.732-0.02-2.445,0.458c0.214,0.336,0.652,0.998,0.876,1.335c-4.452,5.654-10.88,9.504-17.776,11.389l-0.265,0.998
		c10.228,2.404,19.661,9.902,22.89,20.13c7.548-4.818,16.564-7.324,25.529-6.846c1.416-0.01,2.995,0.56,4.37-0.193
		c-6.927-2.914-13.528-7.396-17.104-14.201c-4.472-7.834-3.341-18.204,2.384-25.111c8.526-10.87,23.42-14.639,36.694-13.161
		c-2.669-2.313-6.601-2.964-9.117-5.654c0.214-0.306,0.621-0.907,0.825-1.202c-0.662,0.01-1.966,0.041-2.628,0.051
		c-0.998-2.16-5.012-3.677-3.677-6.194c-0.316,0.132-0.937,0.387-1.253,0.509c-4.615-6.764-5.409-16.024-1.396-23.257
		c4.981-9.525,15.229-14.955,25.478-16.839l0.407-1.233l-0.968-1.182c-9.79-2.129-19.437-7.528-24.113-16.717
		c-4.075-7.579-3.076-17.379,2.251-24.092c5.114-6.958,13.162-10.951,21.352-13.07c0.754-3.056,3.087-5.297,4.238-8.129
		C1989.487,1166.433,1964.009,1166.077,1938.542,1166.342 M1126.391,1215.79l-0.387,0.907c10.625,2.231,20.598,10.248,23.288,21.036
		c1.447,6.122,0.01,12.571-3.219,17.899c-4.839,6.723-12.082,11.705-20.191,13.508c0.601,1.548,2.7,1.212,3.963,1.966
		c8.333,3.178,15.963,9.494,18.887,18.143c2.791,8.038,0.204,17.267-5.562,23.328c-4.493,4.92-10.605,8.292-17.043,9.953
		c-0.102,0.183-0.296,0.54-0.397,0.723c6.897,1.538,12.887,5.552,17.97,10.33c2.241-9.413,10.696-15.984,19.396-19.203
		c9.708-3.515,20.822-3.718,30.52-0.061c0.907-2.363-1.467-4.36-1.579-6.713c-2.343-9.392,2.822-18.663,9.78-24.612
		c8.241-5.613,18.276-8.547,28.289-7.834c-2.231-3.922-5.114-7.488-6.805-11.674c-7.966-0.336-16.065-1.997-22.89-6.296
		c-7.875-4.788-14.16-13.488-13.386-23.053c-0.02-4.737,2.414-8.853,4.645-12.836c-11.735,4.91-25.722,4.309-36.969-1.64
		c-5.399-2.699-9.942-7.029-12.836-12.326C1137.291,1211.114,1132.116,1214.16,1126.391,1215.79 M2012.989,1285.825
		c1.966,0.825,3.932,1.681,6,2.363c1.355-0.825,2.72-1.681,3.993-2.659C2019.671,1285.998,2016.126,1284.827,2012.989,1285.825
		 M1263.132,1303.673c-0.071,0.754-0.204,2.262-0.275,3.015c1.773-0.469,3.555-0.927,5.358-1.375
		C1267.247,1303.663,1264.751,1304.223,1263.132,1303.673 M1281.071,1304.58c0.927,0.988,3.749,0.876,3.168-1.049
		C1282.956,1303.153,1281.896,1303.51,1281.071,1304.58 M544.794,1330.394c0.377,2.374,3.392,2.088,5.144,2.802
		c1.426-0.866,4.136-0.662,4.146-2.924C550.997,1330.709,547.88,1330.689,544.794,1330.394 M1254.401,1428.576
		c1.049,2.924,3.484,5.328,3.973,8.577c1.518-1.121,3.117-2.486,3.698-4.329C1259.271,1431.856,1256.938,1430.023,1254.401,1428.576
		z"/>
	<path fill="#1F1A17" d="M1403.061,233.098c1.345,0.57,1.355,4.034-0.02,4.594C1402.236,236.337,1402.307,234.453,1403.061,233.098z
		"/>
	<path fill="#1F1A17" d="M285.452,979.725l1.436,0.581c-0.143,9.932-0.041,19.865-0.061,29.797c-0.071,2.078,0.377,4.217-0.55,6.204
		C284.902,1004.185,286.247,991.899,285.452,979.725z"/>
	<path fill="#1F1A17" d="M2463.011,1143.777c-2.517-4.747,1.569-10.146-0.968-14.985c2.852,2.221,1.915,6.499,2.241,9.698
		C2463.836,1140.11,2465.14,1143.156,2463.011,1143.777z"/>
	<path fill="#1F1A17" d="M1359.145,1224.387c1.538,0.805,0.611,4.747,0.418,6.51
		C1357.881,1229.654,1358.431,1226.211,1359.145,1224.387z"/>
	<path fill="#1F1A17" d="M167.089,1382.011c-0.132-3.015-1.508-7.11,0.917-9.443
		C168.006,1375.716,168.485,1379.037,167.089,1382.011z"/>
	<path fill="#1F1A17" d="M2420.225,1492.632l0.662-0.051l0.092,0.683l-0.662,0.041L2420.225,1492.632z"/>
	<path fill="#1F1A17" d="M2420.898,1494.282C2423.944,1495.311,2420.032,1497.879,2420.898,1494.282z"/>
	<path fill="#1F1A17" d="M2422.171,1497.165l0.479-0.285C2424.249,1499.539,2421.244,1500.171,2422.171,1497.165z"/>
	<path fill="#1F1A17" d="M648.569,1652.008c4.197-2.72,9.851-1.1,14.629-1.161c-1.273,0.204-3.81,0.611-5.083,0.815l0.591,0.856
		c14.863,3.433,26.079,14.893,35.125,26.537c10.248,13.671,18.204,29.013,23.99,45.067c3.066,8.903,5.735,18.092,6.112,27.556
		c0.438,11.267-3.759,22.513-11.175,30.958c-12.347,13.977-30.795,21.301-49.02,23.369l-0.061,0.734h-21.923
		c-5.409-1.712-11.185-2.007-16.523-4.065c-15.27-4.829-29.196-15.912-34.575-31.356c-5.012-13.569-3.178-28.452,0.408-42.123
		c4.829-18.357,12.275-36.195,23.124-51.832C622.47,1665.618,633.696,1654.158,648.569,1652.008z"/>
</g>
</svg>
